<svg version="1.1" id="Calque_1" xmlns="http://www.w3.org/2000/svg" x="0" y="0" viewBox="0 0 248.5 145.1" xml:space="preserve"><style>.st0{fill:#354463}</style><path class="st0" d="M112.3 64.8l-1.8-.6c-3.4 5.5-7.9 8.2-13.5 8-2.3 0-4.5-.6-6.5-2-2-1.3-3.6-3.5-4.9-6.5s-1.9-6.7-1.9-11.2c0-2.2 0-3.8.1-4.8h28.5c0-15.1-6.4-22.6-19.1-22.6-7.5 0-13.6 2.5-18.1 7.3s-6.8 11.8-6.8 21c0 9 2.2 15.7 6.4 20.3 4.2 4.6 9.9 6.9 17.1 6.9 5.3 0 9.6-1.5 13.1-4.6 3.6-3 5.9-6.8 7.4-11.2zM86.8 31.9c1.5-3 3.6-4.5 6.1-4.5 2.3 0 4.1 1.7 5.3 5.2s1.7 7.9 1.6 13.3h-16c.3-6.3 1.3-11 3-14zm-78.3-20v79.2H0v2h8.5v34.4c0 3.7.3 6.7.8 8.8s1.5 3.9 2.9 5.3c2.3 2.3 5.7 3.5 10.2 3.5 6.7 0 11.3-3.5 13.9-10.5l-1.7-.9c-1.7 4.1-4 6.1-6.9 6.1-1.6 0-2.7-.5-3.4-1.3s-1.1-2.3-1.1-4.3V93.1h12v-2h-12V77.6c2.9 2.4 6.1 3.1 10.8 3.1 6.9 0 12.5-2.4 16.8-7.1s6.5-12 6.5-22c0-8.6-1.7-15.1-5.1-19.6-3.4-4.5-7.8-6.8-13.3-6.8-3.6 0-6.7.8-9.4 2.5s-4.9 4.3-6.3 7.4V0c-4.1.9-8.9 1.2-14.8 1.2-2.1 0-4.2-.1-6.3-.3V3c.1 0 6.4-.3 6.4 8.9zm18.3 20.2c1.8-1.6 3.8-2.4 6-2.4 2.9 0 5.1 1.8 6.7 5.4 1.5 3.7 2.3 9.7 2.3 18 0 8.6-.9 15-2.7 19.2s-4.6 6.3-8.4 6.3c-2.8 0-5.3-.9-7.5-2.7V38.6c.6-2.8 1.9-4.9 3.6-6.5z"/><path class="st0" d="M86.8 112.1c0-15.1-6.4-22.6-19.1-22.6-7.5 0-13.6 2.5-18.1 7.3s-6.8 11.8-6.8 21c0 9 2.2 15.7 6.4 20.3s9.9 6.9 17.1 6.9c5.3 0 9.6-1.5 13.1-4.6 3.5-3 5.9-6.8 7.3-11.2l-1.8-.6c-3.4 5.4-7.9 8.1-13.5 8-2.3 0-4.5-.6-6.5-2-2-1.3-3.6-3.5-4.9-6.5s-1.9-6.7-1.9-11.2c0-2.2 0-3.8.1-4.8h28.6zM61.2 96.3c1.6-3 3.6-4.5 6.1-4.5 2.3 0 4.1 1.7 5.3 5.2s1.7 7.9 1.6 13.3h-16c.3-6.3 1.3-11 3-14zm80.5 44.4c-.9 0-1.5-.3-1.8-1s-.5-1.9-.5-3.5v-27.7c0-3.7-.3-6.6-.8-8.8s-1.5-4-3-5.5c-1.6-1.7-3.7-2.8-6.1-3.5s-5.3-1-8.6-1c-3.2 0-6.1.3-8.8.9s-5 1.4-6.8 2.5c-1.9 1.1-3.3 2.4-4.2 3.7-.9 1.3-1.4 2.9-1.4 4.8 0 2.2.6 4.1 1.9 5.6s3.1 2.2 5.5 2.2c2.2 0 4.1-.6 5.7-2 1.5-1.4 2.3-3.2 2.3-5.5 0-1.8-.5-3.4-1.6-4.8-1-1.4-2.5-2.4-4.4-3.1 1.7-1.6 4.1-2.4 7.4-2.4 2.8 0 4.9.8 6.2 2.4s2 3.9 2 6.7v7.9c0 1.8-.9 3.2-2.6 4.3-1.7 1-4.5 2.2-8.2 3.5-3.5 1.3-6.4 2.4-8.7 3.5s-4.2 2.6-5.8 4.6-2.4 4.5-2.4 7.6c0 3.7 1.1 6.7 3.2 8.9s5.4 3.3 9.9 3.5c6.6 0 11.6-2.7 15-8.2 0 2.5.8 4.5 2.3 6 1.5 1.5 4.1 2.2 7.8 2.2 4.4 0 8.1-1.3 11.2-3.8l-1-1.7c-1.5 1.1-2.7 1.7-3.7 1.7zm-17.2-7c-1.9 2.7-4.2 4.1-6.9 4.2-1.9 0-3.4-.7-4.6-2-1.1-1.4-1.7-3.4-1.7-6.2 0-3.2.6-5.6 2-7.3s3.4-3.4 6-5.1c2.7-1.7 4.4-3.1 5.2-4.5v20.9zm56.9-21.1l-3-2.1c-3.3-2.4-5.7-4.4-7.3-6.1-1.5-1.7-2.3-3.7-2.3-6 0-2.1.7-3.6 2-4.8 1.3-1.1 3-1.7 5-1.7 3.9 0 6.9 1.5 9 4.5 2 3 3.4 6.7 4 11.2h2.1c0-8.5.1-14.4.4-17.9h-2c-.2 1.2-.5 2.2-.9 2.8-.5.7-1 1-1.6 1-.5 0-1.1-.2-1.8-.7-1.2-.8-2.8-1.6-5-2.2-2.2-.7-4.6-1-7.3-.9-4.9 0-9 1.3-12.4 3.8s-5.1 6-5.1 10.3c0 2.5.6 4.8 1.7 6.8s2.5 3.8 4.1 5.3 3.9 3.5 7 5.9c2.6 2.1 4.5 3.6 5.8 4.8s2.4 2.5 3.2 4c.9 1.5 1.3 3.2 1.3 5.1 0 2.4-.7 4.2-2.1 5.4-1.4 1.2-3 1.8-5 1.8-7.8 0-12.3-6.2-13.7-18.7h-2.2c0 9.7-.1 16.4-.4 20.3h2.1c.3-1.3.7-2.3 1.2-2.9.5-.7 1.1-.9 1.8-.7 1 .3 2.5 1 4.7 2.1 2.7 1.4 5.9 2.1 9.6 2.1 3.6 0 6.8-.6 9.7-1.8s5.3-3 7-5.3 2.6-4.9 2.6-7.9c0-3.7-1-6.8-3-9.2-2-2.4-5.1-5.2-9.2-8.3zm51.7 24c-2.3 0-4.5-.6-6.5-2-2-1.3-3.6-3.5-4.9-6.5s-1.9-6.7-1.9-11.2c0-2.2 0-3.8.1-4.8h28.6c0-15.1-6.4-22.6-19.1-22.6-7.5 0-13.6 2.5-18.1 7.3s-6.8 11.8-6.8 21c0 9 2.2 15.7 6.4 20.3s9.9 6.9 17.1 6.9c5.2 0 9.6-1.5 13.1-4.6 3.5-3 5.9-6.8 7.3-11.2l-1.8-.6c-3.4 5.4-7.9 8.1-13.5 8zm-10.3-40.3c1.5-3 3.6-4.5 6.1-4.5 2.3 0 4.1 1.7 5.3 5.2s1.7 7.9 1.6 13.3h-16c.5-6.3 1.5-11 3-14z"/></svg>