<svg version="1.0" xmlns="http://www.w3.org/2000/svg" width="1408" height="1408" viewBox="0 0 1056 1056"><path d="M650.6 2.3c-3.1 3.1-14.5 26.7-19.4 40.2-5.5 15.1-17.6 53.9-20.6 66-5 20.4-9.5 46.6-9.7 57-.2 11.4-1.6 8-3.8-9.2-5.1-40.4-10-53.1-34.5-89.7-7.7-11.4-15.8-24.3-18-28.5-3-5.6-4.6-7.6-6.1-7.6-1.7 0-2 .6-1.9 4.5 0 2.5.6 8.5 1.3 13.5.7 5.4 1.6 31.2 2.1 64 .9 58.5 1.4 64.2 6.9 87.9 1.2 4.9 2 9.1 1.8 9.3-.2.2-1.7-1.6-3.2-3.9-11-16.8-23.3-30-56.5-60.7-26.5-24.5-37.4-34.1-39-34.1-1.9 0-2.3 3.2-.7 5.9 1.5 2.6 17.8 42.8 27.2 67.1 11.4 29.7 30.4 62.3 48.2 82.7l6.2 7.1-23.7.4c-25.9.4-27.6.7-34.3 6.6-8.2 7.2-10.5 19.5-5.4 29.8 3.1 6.3 7.5 10.1 14.8 12.5l5.2 1.7 3.8 17.9 3.8 17.8-.5 22c-.7 31.1-4.2 53.8-11.8 75.5-3.4 9.4-9.4 22-10.6 22-.4 0-1.7-1.9-2.9-4.3-8.3-17-24-28.5-44.8-32.8-13.8-2.9-35.7-2.2-49 1.5-43.1 11.9-66.7 44.3-70.4 96.6-4.7 65.9 22 110.1 72.4 120.1 10.8 2.2 34.1 1.7 43.7-.9 22.9-6.2 42.4-23.7 54.3-48.8 5.2-10.9 5.3-11.8 1.1-13.1-3.4-1.1-3.4-1-7.1 4.3-5.7 8.2-15.8 17.2-23.8 21-9.4 4.5-16.2 5.7-28.4 5.2-9.3-.4-10.9-.8-17.8-4.2-11.9-5.9-20-15.5-26.5-31.4-4.9-12.1-6.4-21.6-6.4-42.7l-.1-19 56.9-.3 56.9-.2-.6-12.3c-.3-6.7-1.3-15.1-2.1-18.7l-1.4-6.5 3.3-5.1c10.6-16.2 19.7-44.1 22.8-69.5.6-5.4 1.4-9.9 1.7-9.9.4 0 2.3 8 4.4 17.7 4.5 21.1 7.2 29.7 13.5 41.8 11 21.3 25.6 30.5 48.3 30.5h6.6l9 9.7c25.8 27.9 45.5 56.2 51.2 73.3 7 20.9-.4 29.5-48 56.5-36.3 20.5-46.8 28.4-51.2 38.1-1.7 3.9-1.9 5.8-1.3 10.8.3 3.3 1.3 7.6 2.1 9.5.8 1.9 1.3 3.6 1.1 3.7-.2.2-5.3-.1-11.4-.6-13.6-1.2-35.2.1-47.8 2.8-18.1 4-29.7 9.6-39.5 19.2-8.2 8.1-10.4 13.3-10.5 25 0 8.4.3 10.1 2.8 15.2 5.6 11.4 15.2 16.5 29.1 15.5 18-1.2 28.8-12.4 28.9-29.8.1-6.3-.4-8.6-2.6-13-3.2-6.6-8.4-11.8-15.6-15.7l-5.4-3 3.9-2.6c7.3-4.8 12-6 24.4-6 10.1-.1 12.2.2 16.8 2.3 6.4 2.9 11.4 8.5 14.4 16 2 5.1 2.3 7.7 2.6 28.9.3 17 0 24.3-.9 26.5-3.3 8.6-11.6 13.4-43 25.2-33.5 12.7-41.8 17-52.2 27.2-10.9 10.8-15.6 25.5-13.6 42.5 1 8.9 1.8 11.8 5.3 18.7 5.4 10.6 15 17.7 28.1 21.1 13 3.2 29.7 3 41-.7 12.9-4.1 25.4-13 32.2-22.8 2.1-3 4.1-5.4 4.4-5.5.3 0 .9 2.2 1.2 4.9 1.2 10 8 19.2 17.3 23.1 6.3 2.8 21.3 4.2 31.5 3 12.1-1.4 24.1-5.9 32.6-12.2l3.2-2.4-1.9-3.2-2-3.2-5.3 3c-5.2 2.9-11.7 3.9-14.3 2.2-3.8-2.5-3.9-3.5-4.5-78.2-.7-77.1-1-81.6-5.8-92.5-3-6.8-8.4-13.8-14.1-18.1-3.3-2.5-4.7-4.1-4-4.8 1.4-1.4 1.3-5.9-.2-7.4-.7-.7-3.3-1.2-5.9-1.2-2.6 0-5.5-.3-6.4-.6-2.8-1.1-5.5-7.9-5.5-13.9 0-5.3.3-5.9 4.6-10.5 6.1-6.5 10.8-9.5 42.3-27.6 30.3-17.3 40.3-24.3 47.7-33.3 5.8-7 8.4-13.1 8.4-19.9 0-18.3-18.2-49.4-49.4-84.5-4.7-5.3-8.6-9.9-8.6-10.2 0-.3 22.1-.5 49.1-.5h49.1l-.6 3.3c-1.2 6.4-4.5 37.4-5.1 48.7-1.2 20.2 2.3 79.9 6 102.6 3.5 21.7 8.9 37.7 14.8 44.1 1.6 1.8 1.7 2.3.6 2.7-.8.2-4.3 1.2-7.9 2.1-18.5 4.9-34.1 16.5-40.5 30.2-8.5 18-6.4 38.7 6 57.2 5.8 8.9 16.6 19 42 39.7 22.8 18.5 29.7 25.5 34.3 34.7 5.7 11.3 6 26.3.6 35.5-2.8 4.7-9.5 9.6-15.4 11.2-5.2 1.5-14.8 1.2-21.5-.5-21.3-5.5-34.6-26.1-40.4-62.3l-1.7-10.7-4.1-.3-4.1-.3-.6 20.3c-.3 11.2-.8 29.7-1 41.1l-.5 20.8 4.1-.3c3.8-.3 4.1-.5 5.9-5.2 2.6-7 5.6-9.9 9.5-9.3 1.8.3 9 3.2 16 6.5 18.4 8.5 23.6 9.6 42.4 9.6 12.7 0 17.1-.4 24.5-2.2 35.3-8.8 55.4-34.2 51.6-65-3.1-24.3-13.1-35.9-62.6-72.8-18.8-14-27.6-22.3-31.6-29.7-3.2-5.9-3.4-6.7-3.4-16.2s.2-10.2 3-14.5c10.8-15.9 38.9-15.8 54.8.2 8.7 8.7 17.1 27.2 20.1 44.3l1.1 6 4.1.3 4.1.3.7-32.8c.4-18 .9-34.2.9-35.8.2-2.8-.1-3-3.6-3.3-2.4-.2-3.8.1-4.1 1-2.6 9.9-5.4 13.8-9.8 13.8-1.5 0-7-2.1-12.1-4.8-5-2.6-12.7-5.6-17-6.7-4.2-1-7.7-2.3-7.7-2.7 0-.4.4-.8 1-.8 1.8 0 9.1-7.3 11.1-11.1 3.2-6.4 2.1-9.9-3.2-9.9-2.2 0-3.3.9-5.3 4.5-4.8 8.1-13.3 12.5-24.1 12.5-4.8 0-5.6-.3-8.8-3.9-8.3-9.2-13.4-34.2-16.8-82.6-2.5-35.8-1.5-69.4 3.2-101.8l1.1-7.7h15.2c24.1 0 32.6-2.7 43.3-13.7 9.1-9.3 15.7-21.2 20.8-37.6 1.4-4.5 5-19.7 7.9-33.7l5.3-25.5 6.2-.7c19.4-2.2 38-13.1 49.4-29.1 11.8-16.5 17.4-34.5 19.7-62.8 1.1-12.9 1.1-13.2 4.6-17.5 2-2.4 7.8-7.7 13-11.9 9.5-7.7 11.2-10.3 8.2-13.3-2.6-2.6-6.3-1.2-14.5 5.3-11.3 9.1-11.8 8.7-12.6-10.4-.4-7.6-.8-9.7-2.3-10.8-2.3-1.7-3.5-1.6-5.9.1-1.7 1.2-1.9 2.6-1.6 14.5.1 7.2-.1 13.1-.5 13.1s-4.5-2.9-9.2-6.5c-4.6-3.6-9.2-6.5-10.2-6.5-2.3 0-5.3 3.4-4.8 5.6.1 1 3.2 4.2 6.8 7.2 7.2 6 13.1 11.5 17.3 16.2l2.8 3.2-1.1 12.6c-1.8 20.7-5.1 33.5-12.3 47.7-5.3 10.4-17.2 22.5-26.7 27.2-9.5 4.6-24.1 8-24 5.5.1-.4 2.4-12.4 5.3-26.6l5.3-25.9 4.5-1.3c2.5-.8 6.7-3.2 9.2-5.4 11-9.8 11.3-26.4.5-36.7-6.8-6.6-7.9-6.7-43.6-7.3l-32.4-.5 9.9-10.6c39.8-42.8 49.2-53.9 69.5-82.3 17.2-23.9 25.5-44.6 18.1-44.6-1 0-5.7 2.7-10.5 5.9-4.8 3.3-16.5 9.9-26 14.7-18.5 9.3-28.4 15.2-36.1 21.7-2.6 2.2-5 3.7-5.3 3.4-.3-.2 2.2-4.7 5.4-9.9 12.7-20 21.6-38.8 32.5-67.9 7.3-19.6 10.8-27.7 19.7-46.4 8.8-18.5 8.5-21.8-1.8-19.7-8.2 1.7-38 16.7-48.2 24.3-16.7 12.3-41.4 39.2-55.7 60.6-9.6 14.4-25.6 48.1-36.1 76.3l-2.1 5.5-.1-20c0-27.9-1.1-40.2-8.4-99.2-3.6-28.5-7.2-58.3-8.1-66.3-2.1-18.6-4.3-22.3-9.9-16.7zM658 46c1.6 11.8 5.1 39.9 7.7 62.5 4.5 39.5 4.7 42.1 4.7 70.5l.1 29.5-5.2 32c-2.9 17.6-5.3 32.4-5.3 32.8 0 .4-5.1.6-11.2.5l-11.3-.3-.8-5.5c-.7-4.3-.2-9.9 1.7-23.4 3.3-22.7 3.3-27.7-.4-49.1-4.8-28.1-4.4-33.6 4.9-60 5-14.1 5.7-21.5 3.6-38.6-2.7-21.9-3.1-41.1-1.1-49.9 1.5-6.4 8.4-23.5 9.2-22.7.2.1 1.7 9.9 3.4 21.7zm-18.1 3.2c-1.9 7.2-1.6 24.8.5 43.8 1 8.5 1.6 18.2 1.3 21.6-.3 3.9-2.8 12.8-6.8 24.5l-6.4 18.4.1 12c.1 9.1.7 15 2.8 24.5 3.9 17.9 4.3 27.7 1.7 43-3.2 19.2-3.3 21.9-1.8 29.8l1.4 7.3-8.1-.3-8.1-.3-1.2-7c-7-40.6-10-73.5-8.3-92.1 3-32.4 7.2-52.1 19.2-90.9 4.5-14.8 14-40.6 14.6-40 .2.2-.2 2.8-.9 5.7zm172.3 1.4c-5.3 4.5-13.5 16.8-20.5 31-6.9 13.7-14.7 23.8-26.5 33.7-15.2 12.9-17.7 16.7-27.7 41.2-9.7 23.7-13.2 29.9-24.8 43.9-8.7 10.5-12.9 18.7-17.1 33.5-4.3 15-7 21-14.2 31.8-5.5 8-5.8 8.3-9.5 8.3-4.4 0-4.4.1-2.5-6.6.8-2.7 2.7-10.3 4.2-16.9 5.7-25.6 27-83.3 38.6-104.5 19.5-35.6 51-69 83.3-88.3 6-3.5 19.6-10.7 20.4-10.7.3 0-1.4 1.6-3.7 3.6zm-.2 14.6c-3.4 7.3-8.7 19.6-11.7 27.3-3 7.7-8.3 21.4-11.8 30.5-10.1 25.8-21.5 45.5-48.1 82.5-6.7 9.4-19.7 28.1-28.9 41.5-9.2 13.5-17.3 25.1-18 25.8-.7.8-2.8 1.2-5.2 1l-4-.3 5.4-9.4c6.6-11.4 8.6-16.6 11.8-29.9 3-12.5 6-18.8 13.2-27.8 11.2-14 17-24.8 26.6-49.5 8.1-20.7 11.9-26.4 27-39.4 11.9-10.3 16.6-16.6 24.3-32.3 3.6-7.3 8.4-15.6 10.6-18.5 4.9-6.3 14-15.8 14.6-15.2.2.2-2.4 6.4-5.8 13.7zM553.6 79.5c6.2 25.1 7.4 34.5 6.1 50.5-1.1 14.8-.3 28.3 2.2 35.7 1.1 3.3 4.5 11.2 7.5 17.7 7.4 15.6 7.6 16.7 8.5 34.1l.8 15 7 20.7 6.9 20.8h-8.3l-6.6-14.8c-18.9-42.3-26.3-71.4-28.6-111.8-.6-9.3-1.2-29.7-1.6-45.4-.3-15.7-.8-32.6-1.1-37.5-1-14 1.1-9.8 7.2 15zm17.1 14c10.2 17.8 15.5 33.1 19.2 55 2.5 14.2 10.2 65.6 13.1 87.4 1.2 8.4 3 20.1 4 26 1.1 5.8 2 11 2 11.4 0 .4-2.3.7-5.2.5l-5.2-.3-2.8-7.8c-7.1-19.7-9.9-31.6-10.4-45.2-.7-16.6-2.3-23-9.6-39-10.2-22.2-9.9-20.5-9.7-48.5.1-25.9-.8-33.9-6.1-51-1.1-3.6-2-7.1-2-7.9 0-1.7 5.5 6.8 12.7 19.4zm-99.2 48.2c10.1 10.2 21.2 29.3 31 53.3 6.6 16.3 10.3 21.8 23 34.4 12.6 12.4 18.8 21.3 24.5 34.9l3.9 9.2-6.2.3-6.2.3-5.9-6.3c-28.5-30.8-41.6-52.9-61.1-103.6-5.8-15-10.5-27.5-10.5-27.7 0-1.5 2.4.2 7.5 5.2zm39 33.4c13.2 13.6 21.9 24.1 30 36.4 4.4 6.8 33.5 60.6 33.5 62 0 .3-2.9.5-6.3.5h-6.4l-2.8-7.3c-6.8-17.4-14.4-28.9-26.4-39.5-9.4-8.4-15.4-16.7-21.3-29.2-2.8-5.8-6.7-14.2-8.8-18.7-3.6-7.7-9.7-18.5-13.8-24.3-2.9-4.2 9.6 7.1 22.3 20.1zm311-14.5c-2.7 2.4-9.9 8-16 12.3-14.4 10.4-20.5 16.8-30.8 32.8-7.4 11.4-9.6 14-16.4 19.3-21.3 16.7-24.6 20.4-32.8 36.6l-6 11.9-8.4.3-8.3.3 2.3-3.8c5.4-9 22.7-34.5 28.9-42.8 16.2-21.6 37.1-42 52.1-51 9.9-5.9 38-20.4 39.4-20.4.6 0-1.2 2-4 4.5zm5 7.6c-7.7 12.7-27.1 38.5-38.2 51-5.1 5.7-18.3 20.2-29.5 32.3l-20.4 22-5.8.3c-3.2.2-5.6-.1-5.4-.5.2-.4 1.9-4 3.8-7.8 7-14.5 13.4-22.2 29.2-34.7 10.6-8.5 14.7-13.4 23.3-28.1 7.7-13.2 9.6-15.2 25.4-26.7 7.5-5.5 15.6-11.7 18.1-13.8 2.5-2.2 4.7-3.8 4.9-3.7.2.2-2.2 4.6-5.4 9.7zm-16.9 118.4c5.2 2.5 7.7 7.4 7.2 14-.8 9.3-6.3 13.4-18 13.4-8.3 0-11.8 1.6-11.8 5.5 0 2.6 3.3 5.5 6.2 5.5 1 0 1.8.3 1.8.7 0 2.4-22.6 110.4-24.6 117.8-6.3 22.6-19.3 40-33.1 44.1-3.8 1.2-20 1.4-90.9 1.4-96.1 0-91.2.3-100.7-6.9-9.4-7-17-19.4-22.1-36.2-2-6.2-25.6-117.6-25.6-120.4 0-.3 34.8-.5 77.3-.5 84.2 0 81.7.2 81.7-5.5s3.1-5.5-88.1-5.5h-83.6l-3.4-2.3c-9.2-6.1-9-19 .3-24.7 3.3-2 5.4-2 163.6-2 145.2 0 160.7.2 163.8 1.6zM408.7 451.1c12.6 4.7 21.3 29.9 21.3 62.1V524l-31.7-.2-31.7-.3.3-6c.7-17.5 5.3-37.3 11.4-48.9 7.9-14.8 19.6-21.6 30.4-17.5zM529 834.7v41.7l-5.7 5.6c-3.2 3-7.6 6.4-9.8 7.5-5.6 2.7-15.5 3.2-21 1.1-4.9-1.9-10.7-7.8-13-13.2-2.3-5.5-3.3-16.9-2.4-26.2 1.7-16.4 8.9-25.9 32.1-41.9 6.2-4.3 13.1-9.7 15.3-11.9 2.2-2.3 4.1-4.3 4.3-4.3.1-.1.2 18.7.2 41.6z"/><path d="M708.2 326.3c-8.3 8.3-9.9 11.6-7 14.5 2.6 2.6 5.4 1.1 14.1-7.6 8.6-8.6 10.1-11.4 7.5-14-2.9-2.9-6.2-1.3-14.6 7.1zm22.1 0c-8.5 8.5-9.7 11.1-6.7 14.1 3 3 5.6 1.8 14.1-6.7 8.4-8.4 10-11.6 7.1-14.5-2.9-2.9-6.1-1.3-14.5 7.1zm22 0c-8.5 8.5-9.7 11.1-6.7 14.1 3 3.1 5.7 1.9 14.2-6.7 8.3-8.3 9.9-11.6 7-14.5-2.9-2.9-6.1-1.3-14.5 7.1zm-193.9 44.6c-8 1.9-14.3 8.8-15.1 16.5-.7 6.2.3 9.4 3.1 10.2 3.9 1 6.6-1.1 6.6-5.2 0-4.2 2.3-8.9 4.9-10.4 4.8-2.5 14.1.5 14.1 4.5 0 .8 1.1 2.6 2.4 4.2 2.1 2.4 2.7 2.6 4.8 1.6 3.2-1.4 3.9-4.1 2.2-8.8-3-8.8-13.8-14.7-23-12.6zm161.1 1.5c-4.5 2-8.4 6.1-10.6 11.2-1.9 4.2-1.9 4.7-.5 7 2.9 4.2 6.2 3.1 9.4-3.2 3.5-6.9 11.2-8.6 16.3-3.5 2.2 2.3 2.9 3.9 2.9 6.9 0 5.2 2.9 8 6.8 6.6 2.4-.8 2.7-1.5 3-6.1.7-11.2-8.4-20.4-20-20.3-2.4.1-5.6.7-7.3 1.4zm-109.8 47.3c-1.4 1.3-.6 10.4 1.3 15.7 2.3 6.1 8.5 13.6 14.2 17.2 2.1 1.4 6.6 3.2 10 4 19.7 5.1 39.7-8.7 41.5-28.6.6-6.6-.5-9-4.2-9-3 0-4.1 1.6-5 7-2.1 13-11.8 21.5-24.5 21.5s-22.4-8.5-24.5-21.5c-.4-2.5-1.2-5.1-1.7-5.8-1.1-1.3-6-1.7-7.1-.5zM113.5 342c-9.2 1.9-35.6 3.2-53.9 2.8l-19.6-.4v3.7c0 3.7.1 3.8 5.5 5.4 9.8 2.8 16.1 10.7 18.4 23 .8 4.1 1.1 55.1 1.1 167.2V705H31v8h33.9l.4 80.7c.5 89 .5 89.3 6.8 102.1 6.1 12.5 18.2 21 33.8 23.8 30 5.3 53.2-5.6 66-31.1l4.4-8.7-2.4-1.9c-3.5-2.7-4.1-2.4-6.9 2.7-6.5 12.4-13.8 18.2-23.7 19.1-7.2.6-13.7-2.4-16.8-7.7-2-3.4-2-5.2-2.3-91.3L124 713h48v-8h-48v-26.5c0-14.6.2-26.5.5-26.5s2.3 1.1 4.4 2.5c9.8 6.5 22.9 9 42.9 8.2 14.9-.6 26.3-3.2 36.5-8.3 37.2-18.8 53.4-55.2 51.4-115.4-1.3-38.9-10.4-63.8-29.8-81.3-12.4-11.3-25.6-16.1-43.9-16.1-13.4.1-21.1 1.8-31.9 7.1-9.1 4.4-21.2 15.9-26.2 24.8l-3.4 6-.3-69.3-.2-69.2-3.3.1c-1.7.1-5 .5-7.2.9zm57 118.7c18.6 6.3 27.5 36 27.5 91.9 0 67-13.1 99.6-41 102.1-8.1.8-19.2-1.9-26.8-6.4l-6.2-3.7.2-77 .3-77.1 3.2-6.8c8.7-18.3 27.3-28.3 42.8-23z"/><path d="M284.5 699.7c-8.2 1.2-19.9 4.8-28 8.7-23.5 11.3-39.4 30.1-47.4 56.1-9.1 29.1-8.8 68.8.6 96.5 11.7 34.7 38.5 55.4 76.2 59 13.4 1.3 27.3 0 37.6-3.5 21.6-7.2 40.3-25.6 50.7-49.8 2.2-4.9 3.8-9 3.6-9.2-.2-.1-1.8-.7-3.6-1.3-3.1-1.1-3.3-1-7.1 4.1-12.6 16.9-27.2 25.3-46.2 26.4-11.9.7-20.5-1.5-29.9-7.9-10.6-7.1-19.9-21.9-24-38.7-2.3-9.2-3.8-28.6-3.2-41.9l.4-9.2H378v-7.8c0-4.2-.7-12-1.5-17.2-5.5-36.4-23.8-57.6-55.2-63.6-6.9-1.3-29.2-1.7-36.8-.7zm22.8 9.7c11.6 4.8 18.9 25.7 20.4 58.3l.6 14.3h-64.5l.7-8.3c2.7-33.2 12.3-57 25.7-63.5 5-2.4 12.4-2.8 17.1-.8zm623.2-9.5c-15.8 2.6-33.2 10.2-44.5 19.4-19 15.5-31.4 40-35 69.4-1.6 12.4-1.3 38.1.5 49.8 5.2 34.1 22.2 59.8 48.2 72.9 13.7 6.9 37 10.6 54.2 8.6 29.2-3.3 52.5-21 66.1-50.3 5.6-12.2 5.6-12.2 1.6-13.4l-3.5-1.1-5.2 6.9c-11.6 15.2-26.2 23.4-43.9 24.6-27.7 1.8-46.2-14.1-55.2-47.7-1.6-6-2.1-11.9-2.5-28.8l-.5-21.2h115.3l-.5-4.8c-.3-2.6-.8-8.3-1.1-12.7-1.5-22.7-10.9-44.6-24.2-56.4-6.2-5.6-16.7-11.1-25.8-13.6-6.8-1.9-35.7-2.9-44-1.6zm26.9 11.5c9.8 7.4 15.8 27.4 17.2 56.8l.7 13.8h-64.5l.6-7.8c2.6-29.1 10.3-51.9 20.7-60.6 5.3-4.5 8.7-5.7 15.5-5.3 4.9.2 6.9.8 9.8 3.1z"/></svg>