<svg version="1.1" id="Calque_1" xmlns="http://www.w3.org/2000/svg" x="0" y="0" viewBox="0 0 248.6 263.8" xml:space="preserve"><style>.st1{fill:#354463}</style><path d="M25.5 252.6c0 3.5-.9 6.2-2.8 8-1.9 1.8-4.6 2.8-8.2 2.8H8.6v-21.2h6.5c3.3 0 5.8.9 7.7 2.7s2.7 4.5 2.7 7.7zm-2.6.1c0-2.8-.7-4.8-2.1-6.2s-3.4-2.1-6.2-2.1H11v16.9h3c2.9 0 5.1-.7 6.6-2.2 1.6-1.4 2.3-3.6 2.3-6.4zm19.2 10.7H30.3v-21.2h11.8v2.2h-9.3v6.8h8.8v2.2h-8.8v7.8h9.3v2.2zm13.6-19.2c-2.3 0-4.2.8-5.5 2.3s-2 3.7-2 6.4c0 2.8.6 4.9 1.9 6.4 1.3 1.5 3.1 2.3 5.5 2.3 1.5 0 3.2-.3 5-.8v2.2c-1.5.5-3.3.8-5.4.8-3.1 0-5.5-.9-7.2-2.8s-2.5-4.6-2.5-8.1c0-2.2.4-4.1 1.2-5.7s2-2.9 3.5-3.8 3.3-1.3 5.4-1.3c2.2 0 4.2.4 5.8 1.2l-1 2.1c-1.5-.9-3-1.2-4.7-1.2zm27.2 8.6c0 3.4-.9 6-2.6 8-1.7 1.9-4.1 2.9-7.1 2.9-3.1 0-5.5-1-7.2-2.9s-2.5-4.6-2.5-8.1c0-3.4.8-6.1 2.5-8s4.1-2.8 7.2-2.8c3 0 5.4 1 7.1 2.9s2.6 4.6 2.6 8zm-16.8 0c0 2.9.6 5 1.8 6.5s3 2.2 5.3 2.2 4.1-.7 5.3-2.2 1.8-3.7 1.8-6.5-.6-5-1.8-6.5-3-2.2-5.3-2.2-4.1.7-5.3 2.2-1.8 3.7-1.8 6.5zm43.4 10.6l-2.6-6.7h-8.5l-2.6 6.7h-2.5l8.4-21.2h2.1l8.3 21.2h-2.6zm-3.3-8.9l-2.5-6.6c-.3-.8-.6-1.8-1-3.1-.2.9-.5 1.9-.9 3.1l-2.5 6.6h6.9zm25.9 8.9h-2.8l-11.6-17.8h-.1c.2 2.1.2 4 .2 5.7v12h-2.2v-21.2h2.8l11.5 17.7h.1c0-.3-.1-1.1-.1-2.5-.1-1.4-.1-2.4-.1-3v-12.1h2.3v21.2zm22.7-10.8c0 3.5-.9 6.2-2.8 8s-4.6 2.8-8.2 2.8h-5.9v-21.2h6.5c3.3 0 5.8.9 7.7 2.7s2.7 4.5 2.7 7.7zm-2.6.1c0-2.8-.7-4.8-2.1-6.2-1.4-1.4-3.4-2.1-6.2-2.1h-3.6v16.9h3c2.9 0 5.1-.7 6.6-2.2 1.5-1.4 2.3-3.6 2.3-6.4zm25.2 10.7l-7.2-18.7h-.1c.1 1.5.2 3.3.2 5.3v13.5H168v-21.2h3.7l6.7 17.4h.1l6.8-17.4h3.7v21.2h-2.5v-13.6c0-1.6.1-3.3.2-5.1h-.1l-7.2 18.7-2-.1zm35.9-10.6c0 3.4-.9 6-2.6 8-1.7 1.9-4.1 2.9-7.1 2.9-3.1 0-5.5-1-7.2-2.9s-2.5-4.6-2.5-8.1c0-3.4.8-6.1 2.5-8s4.1-2.8 7.2-2.8c3 0 5.4 1 7.1 2.9 1.8 1.9 2.6 4.6 2.6 8zm-16.8 0c0 2.9.6 5 1.8 6.5 1.2 1.5 3 2.2 5.3 2.2s4.1-.7 5.3-2.2c1.2-1.5 1.8-3.7 1.8-6.5s-.6-5-1.8-6.5c-1.2-1.5-3-2.2-5.3-2.2s-4.1.7-5.3 2.2-1.8 3.7-1.8 6.5zm24.2 1.8v8.8h-2.5v-21.2h5.8c2.6 0 4.5.5 5.8 1.5 1.2 1 1.9 2.5 1.9 4.5 0 2.8-1.4 4.7-4.3 5.7l5.7 9.5h-2.9l-5.1-8.8h-4.4zm0-2.1h3.4c1.7 0 3-.3 3.8-1s1.2-1.7 1.2-3.1-.4-2.4-1.2-3c-.8-.6-2.1-.9-4-.9h-3.2v8zm27.8 10.9h-11.8v-21.2h11.8v2.2h-9.2v6.8h8.8v2.2h-8.8v7.8h9.3l-.1 2.2z" fill="#c9d3b7"/><path class="st1" d="M112.3 149.8l-1.8-.6c-3.4 5.5-7.9 8.2-13.5 8-2.3 0-4.5-.6-6.5-2-2-1.3-3.6-3.5-4.9-6.5s-1.9-6.7-1.9-11.2c0-2.2 0-3.8.1-4.8h28.5c0-15.1-6.4-22.6-19.1-22.6-7.5 0-13.6 2.5-18.1 7.3s-6.8 11.8-6.8 21c0 9 2.2 15.7 6.4 20.3 4.2 4.6 9.9 6.9 17.1 6.9 5.3 0 9.6-1.5 13.1-4.6 3.6-3 5.9-6.8 7.4-11.2zm-25.5-32.9c1.5-3 3.6-4.5 6.1-4.5 2.3 0 4.1 1.7 5.3 5.2s1.7 7.9 1.6 13.3h-16c.3-6.3 1.3-11 3-14zm-78.3-20v79.2H0v2h8.5v34.4c0 3.7.3 6.7.8 8.8s1.5 3.9 2.9 5.3c2.3 2.3 5.7 3.5 10.2 3.5 6.7 0 11.3-3.5 13.9-10.5l-1.7-.9c-1.7 4.1-4 6.1-6.9 6.1-1.6 0-2.7-.5-3.4-1.3s-1.1-2.3-1.1-4.3v-41.1h12v-2h-12v-13.5c2.9 2.4 6.1 3.1 10.8 3.1 6.9 0 12.5-2.4 16.8-7.1s6.5-12 6.5-22c0-8.6-1.7-15.1-5.1-19.6-3.4-4.5-7.8-6.8-13.3-6.8-3.6 0-6.7.8-9.4 2.5s-4.9 4.3-6.3 7.4V85c-4.1.9-8.9 1.2-14.8 1.2-2.1 0-4.2-.1-6.3-.3V88c.1 0 6.4-.3 6.4 8.9zm18.3 20.2c1.8-1.6 3.8-2.4 6-2.4 2.9 0 5.1 1.8 6.7 5.4 1.5 3.7 2.3 9.7 2.3 18 0 8.6-.9 15-2.7 19.2s-4.6 6.3-8.4 6.3c-2.8 0-5.3-.9-7.5-2.7v-37.3c.6-2.8 1.9-4.9 3.6-6.5z"/><path class="st1" d="M86.8 197.1c0-15.1-6.4-22.6-19.1-22.6-7.5 0-13.6 2.5-18.1 7.3s-6.8 11.8-6.8 21c0 9 2.2 15.7 6.4 20.3 4.2 4.6 9.9 6.9 17.1 6.9 5.3 0 9.6-1.5 13.1-4.6 3.5-3 5.9-6.8 7.3-11.2l-1.8-.6c-3.4 5.4-7.9 8.1-13.5 8-2.3 0-4.5-.6-6.5-2-2-1.3-3.6-3.5-4.9-6.5s-1.9-6.7-1.9-11.2c0-2.2 0-3.8.1-4.8h28.6zm-25.6-15.8c1.6-3 3.6-4.5 6.1-4.5 2.3 0 4.1 1.7 5.3 5.2s1.7 7.9 1.6 13.3h-16c.3-6.3 1.3-11 3-14zm80.5 44.4c-.9 0-1.5-.3-1.8-1s-.5-1.9-.5-3.5v-27.7c0-3.7-.3-6.6-.8-8.8s-1.5-4-3-5.5c-1.6-1.7-3.7-2.8-6.1-3.5s-5.3-1-8.6-1c-3.2 0-6.1.3-8.8.9s-5 1.4-6.8 2.5c-1.9 1.1-3.3 2.4-4.2 3.7-.9 1.3-1.4 2.9-1.4 4.8 0 2.2.6 4.1 1.9 5.6 1.3 1.5 3.1 2.2 5.5 2.2 2.2 0 4.1-.6 5.7-2 1.5-1.4 2.3-3.2 2.3-5.5 0-1.8-.5-3.4-1.6-4.8-1-1.4-2.5-2.4-4.4-3.1 1.7-1.6 4.1-2.4 7.4-2.4 2.8 0 4.9.8 6.2 2.4s2 3.9 2 6.7v7.9c0 1.8-.9 3.2-2.6 4.3-1.7 1-4.5 2.2-8.2 3.5-3.5 1.3-6.4 2.4-8.7 3.5s-4.2 2.6-5.8 4.6-2.4 4.5-2.4 7.6c0 3.7 1.1 6.7 3.2 8.9s5.4 3.3 9.9 3.5c6.6 0 11.6-2.7 15-8.2 0 2.5.8 4.5 2.3 6s4.1 2.2 7.8 2.2c4.4 0 8.1-1.3 11.2-3.8l-1-1.7c-1.5 1.1-2.7 1.7-3.7 1.7zm-17.2-7c-1.9 2.7-4.2 4.1-6.9 4.2-1.9 0-3.4-.7-4.6-2-1.1-1.4-1.7-3.4-1.7-6.2 0-3.2.6-5.6 2-7.3 1.4-1.7 3.4-3.4 6-5.1 2.7-1.7 4.4-3.1 5.2-4.5v20.9zm56.9-21.1l-3-2.1c-3.3-2.4-5.7-4.4-7.3-6.1-1.5-1.7-2.3-3.7-2.3-6 0-2.1.7-3.6 2-4.8 1.3-1.1 3-1.7 5-1.7 3.9 0 6.9 1.5 9 4.5 2 3 3.4 6.7 4 11.2h2.1c0-8.5.1-14.4.4-17.9h-2c-.2 1.2-.5 2.2-.9 2.8-.5.7-1 1-1.6 1-.5 0-1.1-.2-1.8-.7-1.2-.8-2.8-1.6-5-2.2-2.2-.7-4.6-1-7.3-.9-4.9 0-9 1.3-12.4 3.8s-5.1 6-5.1 10.3c0 2.5.6 4.8 1.7 6.8s2.5 3.8 4.1 5.3 3.9 3.5 7 5.9c2.6 2.1 4.5 3.6 5.8 4.8 1.3 1.2 2.4 2.5 3.2 4 .9 1.5 1.3 3.2 1.3 5.1 0 2.4-.7 4.2-2.1 5.4-1.4 1.2-3 1.8-5 1.8-7.8 0-12.3-6.2-13.7-18.7h-2.2c0 9.7-.1 16.4-.4 20.3h2.1c.3-1.3.7-2.3 1.2-2.9.5-.7 1.1-.9 1.8-.7 1 .3 2.5 1 4.7 2.1 2.7 1.4 5.9 2.1 9.6 2.1 3.6 0 6.8-.6 9.7-1.8 2.9-1.2 5.3-3 7-5.3s2.6-4.9 2.6-7.9c0-3.7-1-6.8-3-9.2-2-2.4-5.1-5.2-9.2-8.3zm51.7 24c-2.3 0-4.5-.6-6.5-2-2-1.3-3.6-3.5-4.9-6.5s-1.9-6.7-1.9-11.2c0-2.2 0-3.8.1-4.8h28.6c0-15.1-6.4-22.6-19.1-22.6-7.5 0-13.6 2.5-18.1 7.3s-6.8 11.8-6.8 21c0 9 2.2 15.7 6.4 20.3 4.2 4.6 9.9 6.9 17.1 6.9 5.2 0 9.6-1.5 13.1-4.6 3.5-3 5.9-6.8 7.3-11.2l-1.8-.6c-3.4 5.4-7.9 8.1-13.5 8zm-10.3-40.3c1.5-3 3.6-4.5 6.1-4.5 2.3 0 4.1 1.7 5.3 5.2s1.7 7.9 1.6 13.3h-16c.5-6.3 1.5-11 3-14z"/><path fill="#fff" d="M114.6 69.8h76.6l4.2 1 1.5 2.1v4.8l-4.3 1.3-1.7 7.2-2.4 14.3-4.2 15.5-4.3 5.3-7.8 2.3h-15l-20.9-.8-5.7.8-4.4-3.4-4.4-9.3-3.2-13.1-4-16.7-2-2.2-3-4.1 1.1-3.3z"/><path d="M194 22.1l3-6.7c-.2.5-.5 1-.7 1.5-.9 1.7-1.6 3.4-2.3 5.2zm-20.3 48.5c1.3-.7 2.6-1.6 3.6-2.8 2.6-2.8 5.2-5.7 7.8-8.5 2.7-2.9 5.5-5.8 7.9-9 2.5-3.4 5.1-6.7 7.1-10.5.1-.1.2-.3.2-.5-.1 0-.2.1-.3.2-1 .8-1.9 1.7-2.9 2.5-1.5 1.1-3.2 2.2-4.7 3.3-1.2.8-2.2 1.7-3 2.9-.8 1.3-1.6 2.6-2.3 3.9-1.1 2-2.4 3.7-4.2 5-.7.5-1.3 1-2 1.5-2.8 2.2-5 4.9-6.3 8.3-.3.9-1 1.6-1.5 2.4-.2.4-.6.7-.9 1.1 0 .1.1.2 0 .2-1.4.2-1.7-.4-1.7-.4l1.2-1.5c.7-.8 1.2-1.6 1.5-2.6 1.1-3.1 3.1-5.6 5.6-7.6 1.2-1 2.4-1.9 3.7-2.8.9-.7 1.7-1.6 2.3-2.6.5-.7 1-1.5 1.4-2.3 1.6-2.7 3.5-5.1 6.2-6.8 2.3-1.5 4.5-3.1 6.5-5 .2-.2.5-.4.7-.6-.6.2-1.2.6-1.7.8-2.3 1.2-4.6 2.3-6.9 3.5s-4.4 2.5-6.3 4.2c-4.8 4.2-8.8 9.1-12.3 14.4-1.6 2.4-3.2 4.9-4.8 7.4-.4.6-.7 1.3-1.1 1.9 0 .1.1.1.1.2h8.3c-1 0-1.2-.2-1.2-.2zm-10.1.1c.1 0 .3-.1.3-.2.7-.9 1.4-1.8 2-2.7 4.5-6.8 9.2-13.5 14-20.1 4.2-5.8 7.7-11.9 10.1-18.7 1.9-5.5 4.2-10.9 6.8-16.2 0-.1.1-.2.1-.3-.2 0-.3.1-.4.2-1.1 1.1-2.3 2.2-3.3 3.5-1.5 1.8-2.5 3.9-3.4 6.1-1 2.4-2.5 4.3-4.4 6-.9.8-1.9 1.6-2.8 2.4-1.6 1.5-2.9 3.1-3.8 5.1l-1.8 4.5c-1.6 4.4-3.6 8.5-6.8 12-1.3 1.5-2 3.3-2.5 5.2-.3 1-.4 2.1-.7 3.1-1.1 3.7-3.1 6.8-5.5 9.9l-1.2-.2c.1-1.1.7-1.8 1.3-2.6 2.1-2.7 3.7-5.6 4.4-9 .7-3.3 2.1-6.3 4.5-8.8 1-1.1 1.9-2.3 2.7-3.6 1.7-3 3.1-6.2 4.3-9.5.8-2.3 2-4.4 3.8-6.1.8-.8 1.7-1.5 2.6-2.2 2.6-2.2 4.7-4.7 6-7.8.6-1.4 1.3-2.7 2.1-3.9 1.3-2 2.5-4 4.6-5.2 0 0 0-.1-.1-.1-1.3.6-2.7 1.2-4 2-8.8 4.9-15.5 11.9-20.8 20.3-.7 1.1-1.3 2.2-1.9 3.3-1.4 2.9-2.8 5.9-4 8.9-1.3 3.3-2.3 6.7-3.4 10.1-.5 1.6-1.2 3.1-1.5 4.8-.6 3.1-1.4 6.1-2.3 9.1 0 .1 0 .2-.1.4l-1.7-.5c.2-1.2.5-2.5.7-3.7.5-2.7.9-5.4 1.3-8.1.6-3.6 1.2-7.2 1.2-10.9 0-4.3-.1-8.7-.6-13-.4-3.2-.7-6.5-1.1-9.7-.3-2.4-.5-4.9-.8-7.3-.4-2.9-.8-5.9-1.3-8.8-.1-.9-.2-1.8-.3-2.6h-.1c-.3.7-.6 1.3-1 2-1.6 3.3-2 6.8-1.7 10.4.2 2.2.5 4.5.8 6.7.4 3 .2 6-.9 8.8-.4 1.1-.8 2.1-1.2 3.2-.8 2.1-1.2 4.3-1 6.6.1 1.5.4 3 .7 4.5.5 2.8 1.1 5.5.9 8.3-.1 1.5-.4 2.9-.6 4.4-.2 1.3-.4 2.6-.6 4-.2 1.8.4 3.6.6 5.4 0 .1.2.2.4.2l-1.5-.1c-.1-.8-.2-1.5-.4-2.2-.4-1.7-.7-3.4-.4-5.1.2-1.2.3-2.5.6-3.7.5-2.5.7-5 .2-7.6-.3-1.7-.6-3.3-1-5-.9-3.8-.6-7.5.9-11 .4-1.1.8-2.1 1.2-3.2.7-1.9 1.1-3.8.9-5.8-.2-2.1-.4-4.2-.7-6.3-.3-2.4-.4-4.7 0-7.1.2-1.3.6-2.6.9-3.9 0 .1-.1.3-.2.4-1.9 4.4-3.5 8.9-4.8 13.5-1.4 4.9-2.8 9.8-3.4 14.8-.3 2.7-.7 5.5-.8 8.2 0 3.1.3 6.3.6 9.4.2 1.9.5 3.9.8 5.8.5 2.7.9 5.4 1.4 8.2 0 .1.2.3.3.3l-1.9.1c-.2-.7-.4-1.3-.5-2l-1.2-7.2c-.3-2-.5-4.1-.8-6.1-.7-5.1-1.5-10.1-2.3-15.2-.5-3.4-1.1-6.7-2.3-10-1.5-4.2-3.8-7.9-6.2-11.5 0-.1-.1-.1-.1-.2l-.1.1c0 .2.1.4.1.5.4 1.2.7 2.5 1.1 3.7.9 3.3 1.4 6.6 1.1 10.1-.1 1.8-.2 3.5-.2 5.3 0 1.3.2 2.5.7 3.7.7 1.7 1.5 3.4 2.3 5 .6 1.3 1.2 2.5 1.5 3.9.5 2.1.6 4.3.5 6.4 0 1.3.2 2.5.6 3.7.4 1.4.8 2.9 1.3 4.3.3.9.6 1.9 1 2.8l.9 2.4c0 .1.2.3.3.3h-1.8c0-.7-.2-1.3-.5-2s-.7-1.4-.9-2.2c-.7-2-1.3-4-2-6-.4-1.2-.7-2.5-.7-3.8v-3.1c-.1-2-.5-4-1.5-5.8-.6-1.1-1.1-2.2-1.6-3.3-.6-1.4-1.2-2.8-1.4-4.2-.4-2.6-.2-5.1 0-7.7.1-1.4.3-2.8.1-4.3-.6-4.4-2-8.5-3-12.8-.1-.4-.3-.7-.5-1h-.1v.3c.1 4.3.3 8.6.4 12.9.1 4.8.1 9.6.6 14.4.7 6.9 2.6 13.5 5.3 19.8 1.2 2.9 2.6 5.8 3.9 8.6 0 .1.2.2.2.2l-2.4.1-.3-.6c-2.7-5.1-5.4-10.2-8.2-15.4-.2-.3-.3-.6-.5-.8-2.5-3.9-5.5-7.3-8.8-10.6-1.8-1.8-3.6-3.4-5.5-5.2h-.1l.1.1c2.6 3.4 4.5 7.3 6.1 11.3 1.2 3 3 5.6 5.5 7.7 2.4 2 4.3 4.4 5.6 7.2.9 2 1.6 4 2.4 5.9l-1.5.6c-.1-.3-.2-.5-.3-.7-.4-1-1-2-1.3-3.1-1.3-3.6-3.3-6.7-6.3-9.2-2.6-2.1-4.4-4.8-5.5-7.9-1.2-3.4-2.8-6.6-4.7-9.7-1.4-2.2-2.8-4.3-5-5.8-.1-.1-.2-.1-.4-.2.1.2.1.3.1.4 1.2 3.2 2.6 6.3 3.7 9.5 2 5.8 4.7 11.2 8.3 16.2 2.4 3.3 5.1 6.4 8.1 9.2.5.5 1 .9 1.5 1.4.1.1.2.1.3.1l-1.7.1 37.6.1h-2.3z" fill-rule="evenodd" clip-rule="evenodd" fill="#c9d3b7"/><path d="M176.8 70.7c-2.9.3-3.1-.1-3.1-.1 1.3-.7 2.6-1.6 3.6-2.8 2.6-2.8 5.2-5.7 7.8-8.5 2.7-2.9 5.5-5.8 7.9-9 2.5-3.4 5.1-6.7 7.1-10.5.1-.1.2-.3.2-.5-.1 0-.2.1-.3.2-1 .8-1.9 1.7-2.9 2.5-1.5 1.1-3.2 2.2-4.7 3.3-1.2.8-2.2 1.7-3 2.9-.8 1.3-1.6 2.6-2.3 3.9-1.1 2-2.4 3.7-4.2 5-.7.5-1.3 1-2 1.5-2.8 2.2-5 4.9-6.3 8.3-.3.9-1 1.6-1.5 2.4-.2.4-.6.7-.9 1.1 0 .1.1.2 0 .2-1.4.2-1.7-.4-1.7-.4l1.2-1.5c.7-.8 1.2-1.6 1.5-2.6 1.1-3.1 3.1-5.6 5.6-7.6 1.2-1 2.4-1.9 3.7-2.8.9-.7 1.7-1.6 2.3-2.6.5-.7 1-1.5 1.4-2.3 1.6-2.7 3.5-5.1 6.2-6.8 2.3-1.5 4.5-3.1 6.5-5 .2-.2.5-.4.7-.6-.6.2-1.2.6-1.7.8-2.3 1.2-4.6 2.3-6.9 3.5s-4.4 2.5-6.3 4.2c-4.8 4.2-8.8 9.1-12.3 14.4-1.6 2.4-3.2 4.9-4.8 7.4-.4.6-.7 1.3-1.1 1.9 0 .1.1.1.1.2l-3-.1c.1 0 .3-.1.3-.2.7-.9 1.4-1.8 2-2.7 4.5-6.8 9.2-13.5 14-20.1 4.2-5.8 7.7-11.9 10.1-18.7 1.9-5.5 4.2-10.9 6.8-16.2 0-.1.1-.2.1-.3-.2 0-.3.1-.4.2-1.1 1.1-2.3 2.2-3.3 3.5-1.5 1.8-2.5 3.9-3.4 6.1-1 2.4-2.5 4.3-4.4 6-.9.8-1.9 1.6-2.8 2.4-1.6 1.5-2.9 3.1-3.8 5.1l-1.8 4.5c-1.6 4.4-3.6 8.5-6.8 12-1.3 1.5-2 3.3-2.5 5.2-.3 1-.4 2.1-.7 3.1-1.1 3.7-3.1 6.8-5.5 9.9l-1.2-.2c.1-1.1.7-1.8 1.3-2.6 2.1-2.7 3.7-5.6 4.4-9 .7-3.3 2.1-6.3 4.5-8.8 1-1.1 1.9-2.3 2.7-3.6 1.7-3 3.1-6.2 4.3-9.5.8-2.3 2-4.4 3.8-6.1.8-.8 1.7-1.5 2.6-2.2 2.6-2.2 4.7-4.7 6-7.8.6-1.4 1.3-2.7 2.1-3.9 1.3-2 2.5-4 4.6-5.2 0 0 0-.1-.1-.1-1.3.6-2.7 1.2-4 2-8.8 4.9-15.5 11.9-20.8 20.3-.7 1.1-1.3 2.2-1.9 3.3-1.4 2.9-2.8 5.9-4 8.9-1.3 3.3-2.3 6.7-3.4 10.1-.5 1.6-1.2 3.1-1.5 4.8-.6 3.1-1.4 6.1-2.3 9.1 0 .1 0 .2-.1.4l-1.7-.5c.2-1.2.5-2.5.7-3.7.5-2.7.9-5.4 1.3-8.1.6-3.6 1.2-7.2 1.2-10.9 0-4.3-.1-8.7-.6-13-.4-3.2-.7-6.5-1.1-9.7-.3-2.4-.5-4.9-.8-7.3-.4-2.9-.8-5.9-1.3-8.8-.1-.9-.2-1.8-.3-2.6h-.1c-.3.7-.6 1.3-1 2-1.6 3.3-2 6.8-1.7 10.4.2 2.2.5 4.5.8 6.7.4 3 .2 6-.9 8.8-.4 1.1-.8 2.1-1.2 3.2-.8 2.1-1.2 4.3-1 6.6.1 1.5.4 3 .7 4.5.5 2.8 1.1 5.5.9 8.3-.1 1.5-.4 2.9-.6 4.4-.2 1.3-.4 2.6-.6 4-.2 1.8.4 3.6.6 5.4 0 .1.2.2.4.2l-1.5-.1c-.1-.8-.2-1.5-.4-2.2-.4-1.7-.7-3.4-.4-5.1.2-1.2.3-2.5.6-3.7.5-2.5.7-5 .2-7.6-.3-1.7-.6-3.3-1-5-.9-3.8-.6-7.5.9-11 .4-1.1.8-2.1 1.2-3.2.7-1.9 1.1-3.8.9-5.8-.2-2.1-.4-4.2-.7-6.3-.3-2.4-.4-4.7 0-7.1.2-1.3.6-2.6.9-3.9 0 .1-.1.3-.2.4-1.9 4.4-3.5 8.9-4.8 13.5-1.4 4.9-2.8 9.8-3.4 14.8-.3 2.7-.7 5.5-.8 8.2 0 3.1.3 6.3.6 9.4.2 1.9.5 3.9.8 5.8.5 2.7.9 5.4 1.4 8.2 0 .1.2.3.3.3l-1.9.1c-.2-.7-.4-1.3-.5-2l-1.2-7.2c-.3-2-.5-4.1-.8-6.1-.7-5.1-1.5-10.1-2.3-15.2-.5-3.4-1.1-6.7-2.3-10-1.5-4.2-3.8-7.9-6.2-11.5 0-.1-.1-.1-.1-.2l-.1.1c0 .2.1.4.1.5.4 1.2.7 2.5 1.1 3.7.9 3.3 1.4 6.6 1.1 10.1-.1 1.8-.2 3.5-.2 5.3 0 1.3.2 2.5.7 3.7.7 1.7 1.5 3.4 2.3 5 .6 1.3 1.2 2.5 1.5 3.9.5 2.1.6 4.3.5 6.4 0 1.3.2 2.5.6 3.7.4 1.4.8 2.9 1.3 4.3.3.9.6 1.9 1 2.8l.9 2.4c0 .1.2.3.3.3h-1.8c0-.7-.2-1.3-.5-2s-.7-1.4-.9-2.2c-.7-2-1.3-4-2-6-.4-1.2-.7-2.5-.7-3.8v-3.1c-.1-2-.5-4-1.5-5.8-.6-1.1-1.1-2.2-1.6-3.3-.6-1.4-1.2-2.8-1.4-4.2-.4-2.6-.2-5.1 0-7.7.1-1.4.3-2.8.1-4.3-.6-4.4-2-8.5-3-12.8-.1-.4-.3-.7-.5-1h-.1v.3c.1 4.3.3 8.6.4 12.9.1 4.8.1 9.6.6 14.4.7 6.9 2.6 13.5 5.3 19.8 1.2 2.9 2.6 5.8 3.9 8.6 0 .1.2.2.2.2l-2.4.1-.3-.6c-2.7-5.1-5.4-10.2-8.2-15.4-.2-.3-.3-.6-.5-.8-2.5-3.9-5.5-7.3-8.8-10.6-1.8-1.8-3.6-3.4-5.5-5.2h-.1l.1.1c2.6 3.4 4.5 7.3 6.1 11.3 1.2 3 3 5.6 5.5 7.7 2.4 2 4.3 4.4 5.6 7.2.9 2 1.6 4 2.4 5.9l-1.5.6c-.1-.3-.2-.5-.3-.7-.4-1-1-2-1.3-3.1-1.3-3.6-3.3-6.7-6.3-9.2-2.6-2.1-4.4-4.8-5.5-7.9-1.2-3.4-2.8-6.6-4.7-9.7-1.4-2.2-2.8-4.3-5-5.8-.1-.1-.2-.1-.4-.2.1.2.1.3.1.4 1.2 3.2 2.6 6.3 3.7 9.5 2 5.8 4.7 11.2 8.3 16.2 2.4 3.3 5.1 6.4 8.1 9.2.5.5 1 .9 1.5 1.4.1.1.2.1.3.1l-2.7.2.2-.2c-.1 0-.3-.1-.4-.1-2.7-2.4-5.1-5-7.1-8-2.8-4.2-5.4-8.5-7.4-13.1-1.2-2.7-2.1-5.4-3.1-8.1-1.5-3.7-3-7.3-4.5-11-.2-.4-.5-.9-.7-1.3-.3-.4-.3-.8 0-1 .3-.3.6-.2 1 .1.9.8 1.8 1.5 2.7 2.3 3.8 3.4 7.6 6.9 11.3 10.4s7.1 7.2 9.8 11.5c.2.2.3.5.5.7 0-.1 0-.2-.1-.4-1.9-6.5-2.5-13.2-2.3-20 .2-5.9.1-11.7-.3-17.5-.1-1.3-.1-2.5-.3-3.8-.1-.8-.3-1.6-.5-2.5-.1-.5 0-1 .4-1.1.4-.2.9 0 1.1.5 1.3 3.1 3.3 5.7 5.2 8.4 1.7 2.4 3.2 4.8 4.6 7.3 1.7 3.3 2.7 6.9 3.4 10.6.5 2.9.8 5.9 1.2 8.9 0 .2.1.5.2.7l.3-4.2c.4-3.9 1.2-7.7 2-11.5 1-4.5 2.6-8.8 3.9-13.2 1.4-4.7 3.3-9.1 5.6-13.4.2-.4.4-.7.6-1 .3-.4.7-.7 1.2-.7.6.1.9.5 1 1l.3 2.1c.3 4.2 1 8.4 1.5 12.6.5 3.4.9 6.8 1.3 10.2s.9 6.8 1.2 10.2c.4 4.6.5 9.2.3 13.8v1.5c.1-.2.1-.4.2-.6 1.6-5 3.8-9.7 6.1-14.4 1.9-4.1 4.4-7.8 7.3-11.2 2.6-3 5.2-5.9 8.3-8.5 1.8-1.5 3.7-2.8 5.8-3.8 2.6-1.3 5.2-2.9 8.1-3.6.1 0 .2-.1.3-.1 1-.2 1.7.4 1.5 1.4-.1.5-.4 1.1-.6 1.6-.7 1.6-1.4 3.1-2.2 4.7-1.7 3.4-3 7-4.3 10.6-2.3 6.3-5.2 12.2-9 17.7-.1.2-.2.3-.3.6.1 0 .1-.1.2-.1 3.1-2.7 6.6-4.8 10.3-6.5 1.1-.5 2.3-1.1 3.4-1.7 1.7-.9 3.3-1.9 4.8-3.1.1-.1.3-.2.4-.3.4-.2.8-.3 1.1 0 .4.2.5.6.5 1 0 .3-.2.7-.3 1-1.1 3-2.7 5.8-4.6 8.4-2.7 3.7-5.2 7.5-8.4 10.9-2.4 2.6-4.8 5.3-7.3 8-1.8 1.9-3.6 3.9-5.4 5.8.5.6 0 1-.5 1.5" fill-rule="evenodd" clip-rule="evenodd" fill="#354463"/><path class="st1" d="M131.3 177.4c-.8 0-1.8-.2-2.7-.8-1.5-1.1-2.3-3-2.4-5.8-.1-3.9 5.7-7.1 12.3-10.8 6.4-3.5 13.6-7.5 13.6-11.5-.1-6.8-11.5-19.6-15.8-23.9-.5-.5-.5-1.3 0-1.8s1.3-.5 1.8 0c.7.7 16.5 16.4 16.6 25.7.1 5.5-7.5 9.7-14.9 13.7-5.2 2.9-11.1 6.1-11 8.6 0 1.9.5 3.2 1.3 3.8.9.6 2 .3 2 .3.7-.2 1.4.1 1.6.8.2.7-.1 1.4-.8 1.6-.1-.1-.7.1-1.6.1zm41.1-1.3h-.7c-3.6-.2-7.9-4.2-8.5-33.9v-.9c-.2-7 1.6-17.4 1.6-17.9.1-.7.8-1.2 1.5-1 .7.1 1.2.8 1 1.5 0 .1-1.7 10.6-1.6 17.4v.9c.2 9.4 1.2 31.2 6.1 31.4 5.7.3 6.8-3.3 6.9-3.4.2-.7.9-1.1 1.6-.9s1.1.9.9 1.5c-.2.2-1.6 5.3-8.8 5.3zM190.3 97h-.7c-.7-.1-1.2-.7-1.1-1.4s.7-1.2 1.4-1.1c.1 0 5.6.4 10.3-3.9 4.4-4.1 6.6-11 6.6-20.5l-6.2-4.9c-.5-.4-.6-1.2-.2-1.8.4-.5 1.2-.6 1.8-.2l6.6 5.2c.3.2.5.6.5 1 .1 10.6-2.4 18.3-7.5 23-4.6 4.2-9.7 4.6-11.5 4.6z"/><path class="st1" d="M208 70.7c-.2 0-.3 0-.5-.1-.4-.2-.7-.6-.8-1.1l-.5-9.2c0-.7.5-1.3 1.2-1.3s1.3.5 1.3 1.2l.4 6.7 4.7-3.8c.5-.4 1.3-.4 1.8.2.4.5.4 1.3-.2 1.8l-6.6 5.3c-.3.2-.6.3-.8.3z"/><path class="st1" d="M208.3 65.5c-1.5-.2-2.9.9-3.1 2.4s.9 2.9 2.4 3.1c1.5.2 2.9-.9 3.1-2.4.2-1.5-.9-2.9-2.4-3.1zm-28.9 20c-.3 0-.6-.1-.9-.4-.5-.5-.5-1.3 0-1.8l3.6-3.6c.5-.5 1.3-.5 1.8 0s.5 1.3 0 1.8l-3.6 3.6c-.2.3-.5.4-.9.4zm-5.5 0c-.3 0-.6-.1-.9-.4-.5-.5-.5-1.3 0-1.8l3.6-3.6c.5-.5 1.3-.5 1.8 0s.5 1.3 0 1.8l-3.6 3.6c-.3.3-.6.4-.9.4zm-5.6 0c-.3 0-.6-.1-.9-.4-.5-.5-.5-1.3 0-1.8l3.6-3.6c.5-.5 1.3-.5 1.8 0s.5 1.3 0 1.8l-3.6 3.6c-.2.3-.5.4-.9.4z"/><path class="st1" d="M192.8 68.5h-78.2c-3.5 0-6.3 2.8-6.3 6.3s2.9 6.3 6.3 6.3h40.6c.7 0 1.3-.6 1.3-1.3s-.6-1.3-1.3-1.3h-40.6c-2 0-3.7-1.7-3.7-3.7s1.6-3.7 3.7-3.7h78.2c2.1 0 3.7 1.7 3.7 3.7s-1.7 3.7-3.7 3.7h-2.7c-.7 0-1.3.6-1.3 1.3s.6 1.3 1.3 1.3h2.7c3.4 0 6.3-2.8 6.3-6.3s-2.8-6.3-6.3-6.3z"/><path class="st1" d="M174.4 124.6H133c-7.4 0-11.7-8-13.2-15.4l-5.9-28.8c-.1-.7.3-1.3 1-1.5.7-.1 1.3.3 1.5 1l5.9 28.8c1.3 6.2 4.9 13.4 10.8 13.4h41.4c5.9 0 9.5-7.2 10.8-13.4l5.9-28.8c.1-.7.8-1.1 1.5-1s1.1.8 1 1.5l-5.9 28.8c-1.7 7.5-6 15.4-13.4 15.4z"/><path class="st1" d="M129.1 99.4c-.6 0-1.1-.4-1.2-1-.5-2.7 1.4-5.4 4.1-5.8 2.7-.5 5.4 1.4 5.8 4.1.1.7-.3 1.3-1 1.4-.7.1-1.3-.3-1.4-1s-.5-1.3-1-1.6c-.6-.4-1.2-.5-1.9-.4-.7.1-1.3.5-1.6 1-.4.6-.5 1.2-.4 1.9s-.3 1.3-1 1.4h-.4zm48.5 0h-.2c-.7-.1-1.1-.8-1-1.4.1-.7 0-1.3-.4-1.9-.4-.6-1-.9-1.6-1-1.4-.2-2.7.7-3 2.1-.1.7-.8 1.1-1.4 1-.7-.1-1.1-.8-1-1.4.5-2.7 3.1-4.6 5.8-4.1 1.3.2 2.5 1 3.3 2.1s1.1 2.4.8 3.8c-.1.4-.7.8-1.3.8zm-24.6 15c-4.8 0-8.7-3.9-8.7-8.7 0-.7.6-1.2 1.2-1.2s1.2.6 1.2 1.2c0 3.4 2.8 6.2 6.2 6.2s6.2-2.8 6.2-6.2c0-.7.6-1.2 1.2-1.2s1.2.6 1.2 1.2c.2 4.8-3.7 8.7-8.5 8.7zm-44.6 11.5c-.3 0-.6-.1-.9-.4-.5-.5-.5-1.3 0-1.8 9.6-9.7 8.5-33 8.5-33.2 0-.7.5-1.3 1.2-1.3s1.3.5 1.3 1.2c.1 1 1.2 24.7-9.2 35.1-.3.3-.6.4-.9.4z"/></svg>