<svg xmlns="http://www.w3.org/2000/svg" width="23.358" height="23.358"><path data-name="Tracé 109" d="M11.664 16.365a4.577 4.577 0 1 0-4.58-4.58 4.585 4.585 0 0 0 4.58 4.58zm.015-7.965a3.386 3.386 0 1 1-3.386 3.385A3.386 3.386 0 0 1 11.679 8.4zm5.083.359h6.6v10a4.6 4.6 0 0 1-4.6 4.6H4.657A4.648 4.648 0 0 1 0 18.763v-10h6.567a5.886 5.886 0 0 0-.849 3.026 5.946 5.946 0 0 0 11.891 0 5.885 5.885 0 0 0-.846-3.03zm2-8.759H6.813v4.866H5.84V0h-.974v4.866h-.973V.075a4.662 4.662 0 0 0-.973.263v4.528h-.973V.874A4.572 4.572 0 0 0 0 4.6v3.19h7.273a5.925 5.925 0 0 1 8.781 0h7.3V4.6A4.6 4.6 0 0 0 18.763 0zm2.649 5.124a.72.72 0 0 1-.725.715h-2.443a.72.72 0 0 1-.724-.715V2.662a.72.72 0 0 1 .724-.715h2.444a.72.72 0 0 1 .725.715z" fill="#c9d3b7"/></svg>