<svg xmlns="http://www.w3.org/2000/svg" viewBox="0 0 23.4 23.4"><path d="M11.7 16.4c2.5 0 4.6-2.1 4.6-4.6 0-2.5-2.1-4.6-4.6-4.6-2.5 0-4.6 2-4.6 4.6 0 2.5 2 4.6 4.6 4.6zm0-8c1.9 0 3.4 1.5 3.4 3.4s-1.5 3.4-3.4 3.4-3.4-1.5-3.4-3.4 1.5-3.4 3.4-3.4zm5.1.4h6.6v10c0 2.5-2.1 4.6-4.6 4.6H4.7c-2.6 0-4.6-2-4.7-4.6v-10h6.6c-.6.9-.8 2-.8 3 0 3.3 2.7 5.9 6 5.9 3.2 0 5.8-2.6 5.9-5.9-.1-1.1-.4-2.1-.9-3zm2-8.8h-12v4.9h-1V0h-1v4.9h-1V.1c-.3.1-.7.1-1 .3v4.5h-1v-4C.7 1.7 0 3.1 0 4.6v3.2h7.3c2.2-2.4 5.9-2.6 8.4-.4l.4.4h7.3V4.6c0-2.5-2.1-4.6-4.6-4.6zm2.6 5.1c0 .4-.3.7-.7.7h-2.4c-.4 0-.7-.3-.7-.7V2.7c0-.4.3-.7.7-.7h2.4c.4 0 .7.3.7.7v2.4z" fill="#354463"/></svg>