<?xml version="1.0" encoding="utf-8"?>
<!-- Generator: Adobe Illustrator 23.0.2, SVG Export Plug-In . SVG Version: 6.00 Build 0)  -->
<svg version="1.1" id="Calque_1" xmlns="http://www.w3.org/2000/svg" xmlns:xlink="http://www.w3.org/1999/xlink" x="0px" y="0px"
	 viewBox="0 0 248.6 263.8" style="enable-background:new 0 0 248.6 263.8;" xml:space="preserve">
<style type="text/css">
	.st0{fill:#C9D3B7;}
	.st1{fill:#354463;}
	.st2{fill:#FFFFFF;}
	.st3{fill-rule:evenodd;clip-rule:evenodd;fill:#C9D3B7;}
	.st4{fill-rule:evenodd;clip-rule:evenodd;fill:#354463;}
</style>
<g>
	<g>
		<path class="st0" d="M25.5,252.6c0,3.5-0.9,6.2-2.8,8c-1.9,1.8-4.6,2.8-8.2,2.8H8.6v-21.2h6.5c3.3,0,5.8,0.9,7.7,2.7
			S25.5,249.4,25.5,252.6z M22.9,252.7c0-2.8-0.7-4.8-2.1-6.2s-3.4-2.1-6.2-2.1H11v16.9h3c2.9,0,5.1-0.7,6.6-2.2
			C22.2,257.7,22.9,255.5,22.9,252.7z"/>
		<path class="st0" d="M42.1,263.4H30.3v-21.2h11.8v2.2h-9.3v6.8h8.8v2.2h-8.8v7.8h9.3V263.4z"/>
		<path class="st0" d="M55.7,244.2c-2.3,0-4.2,0.8-5.5,2.3s-2,3.7-2,6.4c0,2.8,0.6,4.9,1.9,6.4c1.3,1.5,3.1,2.3,5.5,2.3
			c1.5,0,3.2-0.3,5-0.8v2.2c-1.5,0.5-3.3,0.8-5.4,0.8c-3.1,0-5.5-0.9-7.2-2.8s-2.5-4.6-2.5-8.1c0-2.2,0.4-4.1,1.2-5.7s2-2.9,3.5-3.8
			s3.3-1.3,5.4-1.3c2.2,0,4.2,0.4,5.8,1.2l-1,2.1C58.9,244.5,57.4,244.2,55.7,244.2z"/>
		<path class="st0" d="M82.9,252.8c0,3.4-0.9,6-2.6,8c-1.7,1.9-4.1,2.9-7.1,2.9c-3.1,0-5.5-1-7.2-2.9s-2.5-4.6-2.5-8.1
			c0-3.4,0.8-6.1,2.5-8s4.1-2.8,7.2-2.8c3,0,5.4,1,7.1,2.9S82.9,249.4,82.9,252.8z M66.1,252.8c0,2.9,0.6,5,1.8,6.5s3,2.2,5.3,2.2
			s4.1-0.7,5.3-2.2s1.8-3.7,1.8-6.5s-0.6-5-1.8-6.5s-3-2.2-5.3-2.2s-4.1,0.7-5.3,2.2S66.1,250,66.1,252.8z"/>
		<path class="st0" d="M109.5,263.4l-2.6-6.7h-8.5l-2.6,6.7h-2.5l8.4-21.2h2.1l8.3,21.2H109.5z M106.2,254.5l-2.5-6.6
			c-0.3-0.8-0.6-1.8-1-3.1c-0.2,0.9-0.5,1.9-0.9,3.1l-2.5,6.6H106.2z"/>
		<path class="st0" d="M132.1,263.4h-2.8l-11.6-17.8h-0.1c0.2,2.1,0.2,4,0.2,5.7v12h-2.2v-21.2h2.8l11.5,17.7h0.1
			c0-0.3-0.1-1.1-0.1-2.5c-0.1-1.4-0.1-2.4-0.1-3v-12.1h2.3L132.1,263.4L132.1,263.4z"/>
		<path class="st0" d="M154.8,252.6c0,3.5-0.9,6.2-2.8,8s-4.6,2.8-8.2,2.8h-5.9v-21.2h6.5c3.3,0,5.8,0.9,7.7,2.7
			S154.8,249.4,154.8,252.6z M152.2,252.7c0-2.8-0.7-4.8-2.1-6.2c-1.4-1.4-3.4-2.1-6.2-2.1h-3.6v16.9h3c2.9,0,5.1-0.7,6.6-2.2
			C151.4,257.7,152.2,255.5,152.2,252.7z"/>
		<path class="st0" d="M177.4,263.4l-7.2-18.7h-0.1c0.1,1.5,0.2,3.3,0.2,5.3v13.5H168v-21.2h3.7l6.7,17.4h0.1l6.8-17.4h3.7v21.2
			h-2.5v-13.6c0-1.6,0.1-3.3,0.2-5.1h-0.1l-7.2,18.7L177.4,263.4L177.4,263.4z"/>
		<path class="st0" d="M213.3,252.8c0,3.4-0.9,6-2.6,8c-1.7,1.9-4.1,2.9-7.1,2.9c-3.1,0-5.5-1-7.2-2.9s-2.5-4.6-2.5-8.1
			c0-3.4,0.8-6.1,2.5-8s4.1-2.8,7.2-2.8c3,0,5.4,1,7.1,2.9C212.5,246.7,213.3,249.4,213.3,252.8z M196.5,252.8c0,2.9,0.6,5,1.8,6.5
			c1.2,1.5,3,2.2,5.3,2.2s4.1-0.7,5.3-2.2c1.2-1.5,1.8-3.7,1.8-6.5s-0.6-5-1.8-6.5c-1.2-1.5-3-2.2-5.3-2.2s-4.1,0.7-5.3,2.2
			S196.5,250,196.5,252.8z"/>
		<path class="st0" d="M220.7,254.6v8.8h-2.5v-21.2h5.8c2.6,0,4.5,0.5,5.8,1.5c1.2,1,1.9,2.5,1.9,4.5c0,2.8-1.4,4.7-4.3,5.7l5.7,9.5
			h-2.9l-5.1-8.8H220.7z M220.7,252.5h3.4c1.7,0,3-0.3,3.8-1s1.2-1.7,1.2-3.1s-0.4-2.4-1.2-3c-0.8-0.6-2.1-0.9-4-0.9h-3.2
			L220.7,252.5L220.7,252.5z"/>
		<path class="st0" d="M248.5,263.4h-11.8v-21.2h11.8v2.2h-9.2v6.8h8.8v2.2h-8.8v7.8h9.3L248.5,263.4L248.5,263.4z"/>
	</g>
	<g>
		<path class="st1" d="M112.3,149.8l-1.8-0.6c-3.4,5.5-7.9,8.2-13.5,8c-2.3,0-4.5-0.6-6.5-2c-2-1.3-3.6-3.5-4.9-6.5
			s-1.9-6.7-1.9-11.2c0-2.2,0-3.8,0.1-4.8h28.5c0-15.1-6.4-22.6-19.1-22.6c-7.5,0-13.6,2.5-18.1,7.3s-6.8,11.8-6.8,21
			c0,9,2.2,15.7,6.4,20.3c4.2,4.6,9.9,6.9,17.1,6.9c5.3,0,9.6-1.5,13.1-4.6C108.5,158,110.8,154.2,112.3,149.8z M86.8,116.9
			c1.5-3,3.6-4.5,6.1-4.5c2.3,0,4.1,1.7,5.3,5.2s1.7,7.9,1.6,13.3h-16C84.1,124.6,85.1,119.9,86.8,116.9z"/>
		<path class="st1" d="M8.5,96.9v79.2H0v2h8.5v34.4c0,3.7,0.3,6.7,0.8,8.8s1.5,3.9,2.9,5.3c2.3,2.3,5.7,3.5,10.2,3.5
			c6.7,0,11.3-3.5,13.9-10.5l-1.7-0.9c-1.7,4.1-4,6.1-6.9,6.1c-1.6,0-2.7-0.5-3.4-1.3s-1.1-2.3-1.1-4.3v-41.1h12v-2h-12v-13.5
			c2.9,2.4,6.1,3.1,10.8,3.1c6.9,0,12.5-2.4,16.8-7.1s6.5-12,6.5-22c0-8.6-1.7-15.1-5.1-19.6c-3.4-4.5-7.8-6.8-13.3-6.8
			c-3.6,0-6.7,0.8-9.4,2.5s-4.9,4.3-6.3,7.4V85c-4.1,0.9-8.9,1.2-14.8,1.2c-2.1,0-4.2-0.1-6.3-0.3V88C2.2,88,8.5,87.7,8.5,96.9z
			 M26.8,117.1c1.8-1.6,3.8-2.4,6-2.4c2.9,0,5.1,1.8,6.7,5.4c1.5,3.7,2.3,9.7,2.3,18c0,8.6-0.9,15-2.7,19.2s-4.6,6.3-8.4,6.3
			c-2.8,0-5.3-0.9-7.5-2.7v-37.3C23.8,120.8,25.1,118.7,26.8,117.1z"/>
		<path class="st1" d="M86.8,197.1c0-15.1-6.4-22.6-19.1-22.6c-7.5,0-13.6,2.5-18.1,7.3s-6.8,11.8-6.8,21c0,9,2.2,15.7,6.4,20.3
			c4.2,4.6,9.9,6.9,17.1,6.9c5.3,0,9.6-1.5,13.1-4.6c3.5-3,5.9-6.8,7.3-11.2l-1.8-0.6c-3.4,5.4-7.9,8.1-13.5,8c-2.3,0-4.5-0.6-6.5-2
			c-2-1.3-3.6-3.5-4.9-6.5s-1.9-6.7-1.9-11.2c0-2.2,0-3.8,0.1-4.8L86.8,197.1L86.8,197.1z M61.2,181.3c1.6-3,3.6-4.5,6.1-4.5
			c2.3,0,4.1,1.7,5.3,5.2s1.7,7.9,1.6,13.3h-16C58.5,189,59.5,184.3,61.2,181.3z"/>
		<path class="st1" d="M141.7,225.7c-0.9,0-1.5-0.3-1.8-1s-0.5-1.9-0.5-3.5v-27.7c0-3.7-0.3-6.6-0.8-8.8s-1.5-4-3-5.5
			c-1.6-1.7-3.7-2.8-6.1-3.5s-5.3-1-8.6-1c-3.2,0-6.1,0.3-8.8,0.9s-5,1.4-6.8,2.5c-1.9,1.1-3.3,2.4-4.2,3.7
			c-0.9,1.3-1.4,2.9-1.4,4.8c0,2.2,0.6,4.1,1.9,5.6c1.3,1.5,3.1,2.2,5.5,2.2c2.2,0,4.1-0.6,5.7-2c1.5-1.4,2.3-3.2,2.3-5.5
			c0-1.8-0.5-3.4-1.6-4.8c-1-1.4-2.5-2.4-4.4-3.1c1.7-1.6,4.1-2.4,7.4-2.4c2.8,0,4.9,0.8,6.2,2.4s2,3.9,2,6.7v7.9
			c0,1.8-0.9,3.2-2.6,4.3c-1.7,1-4.5,2.2-8.2,3.5c-3.5,1.3-6.4,2.4-8.7,3.5s-4.2,2.6-5.8,4.6S97,214,97,217.1c0,3.7,1.1,6.7,3.2,8.9
			c2.1,2.2,5.4,3.3,9.9,3.5c6.6,0,11.6-2.7,15-8.2c0,2.5,0.8,4.5,2.3,6s4.1,2.2,7.8,2.2c4.4,0,8.1-1.3,11.2-3.8l-1-1.7
			C143.9,225.1,142.7,225.7,141.7,225.7z M124.5,218.7c-1.9,2.7-4.2,4.1-6.9,4.2c-1.9,0-3.4-0.7-4.6-2c-1.1-1.4-1.7-3.4-1.7-6.2
			c0-3.2,0.6-5.6,2-7.3c1.4-1.7,3.4-3.4,6-5.1c2.7-1.7,4.4-3.1,5.2-4.5V218.7z"/>
		<path class="st1" d="M181.4,197.6l-3-2.1c-3.3-2.4-5.7-4.4-7.3-6.1c-1.5-1.7-2.3-3.7-2.3-6c0-2.1,0.7-3.6,2-4.8
			c1.3-1.1,3-1.7,5-1.7c3.9,0,6.9,1.5,9,4.5c2,3,3.4,6.7,4,11.2h2.1c0-8.5,0.1-14.4,0.4-17.9h-2c-0.2,1.2-0.5,2.2-0.9,2.8
			c-0.5,0.7-1,1-1.6,1c-0.5,0-1.1-0.2-1.8-0.7c-1.2-0.8-2.8-1.6-5-2.2c-2.2-0.7-4.6-1-7.3-0.9c-4.9,0-9,1.3-12.4,3.8
			s-5.1,6-5.1,10.3c0,2.5,0.6,4.8,1.7,6.8s2.5,3.8,4.1,5.3s3.9,3.5,7,5.9c2.6,2.1,4.5,3.6,5.8,4.8c1.3,1.2,2.4,2.5,3.2,4
			c0.9,1.5,1.3,3.2,1.3,5.1c0,2.4-0.7,4.2-2.1,5.4c-1.4,1.2-3,1.8-5,1.8c-7.8,0-12.3-6.2-13.7-18.7h-2.2c0,9.7-0.1,16.4-0.4,20.3
			h2.1c0.3-1.3,0.7-2.3,1.2-2.9c0.5-0.7,1.1-0.9,1.8-0.7c1,0.3,2.5,1,4.7,2.1c2.7,1.4,5.9,2.1,9.6,2.1c3.6,0,6.8-0.6,9.7-1.8
			c2.9-1.2,5.3-3,7-5.3s2.6-4.9,2.6-7.9c0-3.7-1-6.8-3-9.2C188.6,203.5,185.5,200.7,181.4,197.6z"/>
		<path class="st1" d="M233.1,221.6c-2.3,0-4.5-0.6-6.5-2c-2-1.3-3.6-3.5-4.9-6.5s-1.9-6.7-1.9-11.2c0-2.2,0-3.8,0.1-4.8h28.6
			c0-15.1-6.4-22.6-19.1-22.6c-7.5,0-13.6,2.5-18.1,7.3s-6.8,11.8-6.8,21c0,9,2.2,15.7,6.4,20.3c4.2,4.6,9.9,6.9,17.1,6.9
			c5.2,0,9.6-1.5,13.1-4.6c3.5-3,5.9-6.8,7.3-11.2l-1.8-0.6C243.2,219,238.7,221.7,233.1,221.6z M222.8,181.3c1.5-3,3.6-4.5,6.1-4.5
			c2.3,0,4.1,1.7,5.3,5.2s1.7,7.9,1.6,13.3h-16C220.3,189,221.3,184.3,222.8,181.3z"/>
	</g>
	<g>
		<polygon class="st2" points="114.6,69.8 153.7,69.8 191.2,69.8 195.4,70.8 196.9,72.9 196.9,77.7 192.6,79 190.9,86.2 
			188.5,100.5 184.3,116 180,121.3 172.2,123.6 157.2,123.6 136.3,122.8 130.6,123.6 126.2,120.2 121.8,110.9 118.6,97.8 
			114.6,81.1 112.6,78.9 109.6,74.8 110.7,71.5 		"/>
		<g>
			<g>
				<path class="st3" d="M194,22.1l3-6.7l0,0c-0.2,0.5-0.5,1-0.7,1.5C195.4,18.6,194.7,20.3,194,22.1z"/>
				<path class="st3" d="M173.7,70.6c1.3-0.7,2.6-1.6,3.6-2.8c2.6-2.8,5.2-5.7,7.8-8.5c2.7-2.9,5.5-5.8,7.9-9
					c2.5-3.4,5.1-6.7,7.1-10.5c0.1-0.1,0.2-0.3,0.2-0.5c-0.1,0-0.2,0.1-0.3,0.2c-1,0.8-1.9,1.7-2.9,2.5c-1.5,1.1-3.2,2.2-4.7,3.3
					c-1.2,0.8-2.2,1.7-3,2.9c-0.8,1.3-1.6,2.6-2.3,3.9c-1.1,2-2.4,3.7-4.2,5c-0.7,0.5-1.3,1-2,1.5c-2.8,2.2-5,4.9-6.3,8.3
					c-0.3,0.9-1,1.6-1.5,2.4c-0.2,0.4-0.6,0.7-0.9,1.1c0,0.1,0.1,0.2,0,0.2c-1.4,0.2-1.7-0.4-1.7-0.4c0.4-0.5,0.8-1,1.2-1.5
					c0.7-0.8,1.2-1.6,1.5-2.6c1.1-3.1,3.1-5.6,5.6-7.6c1.2-1,2.4-1.9,3.7-2.8c0.9-0.7,1.7-1.6,2.3-2.6c0.5-0.7,1-1.5,1.4-2.3
					c1.6-2.7,3.5-5.1,6.2-6.8c2.3-1.5,4.5-3.1,6.5-5c0.2-0.2,0.5-0.4,0.7-0.6c-0.6,0.2-1.2,0.6-1.7,0.8c-2.3,1.2-4.6,2.3-6.9,3.5
					s-4.4,2.5-6.3,4.2c-4.8,4.2-8.8,9.1-12.3,14.4c-1.6,2.4-3.2,4.9-4.8,7.4c-0.4,0.6-0.7,1.3-1.1,1.9c0,0.1,0.1,0.1,0.1,0.2h8.3
					l0,0C173.9,70.8,173.7,70.6,173.7,70.6z"/>
				<path class="st3" d="M163.6,70.7c0.1,0,0.3-0.1,0.3-0.2c0.7-0.9,1.4-1.8,2-2.7c4.5-6.8,9.2-13.5,14-20.1
					c4.2-5.8,7.7-11.9,10.1-18.7c1.9-5.5,4.2-10.9,6.8-16.2c0-0.1,0.1-0.2,0.1-0.3c-0.2,0-0.3,0.1-0.4,0.2c-1.1,1.1-2.3,2.2-3.3,3.5
					c-1.5,1.8-2.5,3.9-3.4,6.1c-1,2.4-2.5,4.3-4.4,6c-0.9,0.8-1.9,1.6-2.8,2.4c-1.6,1.5-2.9,3.1-3.8,5.1c-0.6,1.5-1.2,3-1.8,4.5
					c-1.6,4.4-3.6,8.5-6.8,12c-1.3,1.5-2,3.3-2.5,5.2c-0.3,1-0.4,2.1-0.7,3.1c-1.1,3.7-3.1,6.8-5.5,9.9l-1.2-0.2
					c0.1-1.1,0.7-1.8,1.3-2.6c2.1-2.7,3.7-5.6,4.4-9c0.7-3.3,2.1-6.3,4.5-8.8c1-1.1,1.9-2.3,2.7-3.6c1.7-3,3.1-6.2,4.3-9.5
					c0.8-2.3,2-4.4,3.8-6.1c0.8-0.8,1.7-1.5,2.6-2.2c2.6-2.2,4.7-4.7,6-7.8c0.6-1.4,1.3-2.7,2.1-3.9c1.3-2,2.5-4,4.6-5.2
					c0,0,0-0.1-0.1-0.1c-1.3,0.6-2.7,1.2-4,2c-8.8,4.9-15.5,11.9-20.8,20.3c-0.7,1.1-1.3,2.2-1.9,3.3c-1.4,2.9-2.8,5.9-4,8.9
					c-1.3,3.3-2.3,6.7-3.4,10.1c-0.5,1.6-1.2,3.1-1.5,4.8c-0.6,3.1-1.4,6.1-2.3,9.1c0,0.1,0,0.2-0.1,0.4l-1.7-0.5
					c0.2-1.2,0.5-2.5,0.7-3.7c0.5-2.7,0.9-5.4,1.3-8.1c0.6-3.6,1.2-7.2,1.2-10.9c0-4.3-0.1-8.7-0.6-13c-0.4-3.2-0.7-6.5-1.1-9.7
					c-0.3-2.4-0.5-4.9-0.8-7.3c-0.4-2.9-0.8-5.9-1.3-8.8c-0.1-0.9-0.2-1.8-0.3-2.6h-0.1c-0.3,0.7-0.6,1.3-1,2
					c-1.6,3.3-2,6.8-1.7,10.4c0.2,2.2,0.5,4.5,0.8,6.7c0.4,3,0.2,6-0.9,8.8c-0.4,1.1-0.8,2.1-1.2,3.2c-0.8,2.1-1.2,4.3-1,6.6
					c0.1,1.5,0.4,3,0.7,4.5c0.5,2.8,1.1,5.5,0.9,8.3c-0.1,1.5-0.4,2.9-0.6,4.4c-0.2,1.3-0.4,2.6-0.6,4c-0.2,1.8,0.4,3.6,0.6,5.4
					c0,0.1,0.2,0.2,0.4,0.2l-1.5-0.1c-0.1-0.8-0.2-1.5-0.4-2.2c-0.4-1.7-0.7-3.4-0.4-5.1c0.2-1.2,0.3-2.5,0.6-3.7
					c0.5-2.5,0.7-5,0.2-7.6c-0.3-1.7-0.6-3.3-1-5c-0.9-3.8-0.6-7.5,0.9-11c0.4-1.1,0.8-2.1,1.2-3.2c0.7-1.9,1.1-3.8,0.9-5.8
					c-0.2-2.1-0.4-4.2-0.7-6.3c-0.3-2.4-0.4-4.7,0-7.1c0.2-1.3,0.6-2.6,0.9-3.9c0,0.1-0.1,0.3-0.2,0.4c-1.9,4.4-3.5,8.9-4.8,13.5
					c-1.4,4.9-2.8,9.8-3.4,14.8c-0.3,2.7-0.7,5.5-0.8,8.2c0,3.1,0.3,6.3,0.6,9.4c0.2,1.9,0.5,3.9,0.8,5.8c0.5,2.7,0.9,5.4,1.4,8.2
					c0,0.1,0.2,0.3,0.3,0.3l-1.9,0.1c-0.2-0.7-0.4-1.3-0.5-2c-0.4-2.4-0.8-4.8-1.2-7.2c-0.3-2-0.5-4.1-0.8-6.1
					c-0.7-5.1-1.5-10.1-2.3-15.2c-0.5-3.4-1.1-6.7-2.3-10c-1.5-4.2-3.8-7.9-6.2-11.5c0-0.1-0.1-0.1-0.1-0.2l-0.1,0.1
					c0,0.2,0.1,0.4,0.1,0.5c0.4,1.2,0.7,2.5,1.1,3.7c0.9,3.3,1.4,6.6,1.1,10.1c-0.1,1.8-0.2,3.5-0.2,5.3c0,1.3,0.2,2.5,0.7,3.7
					c0.7,1.7,1.5,3.4,2.3,5c0.6,1.3,1.2,2.5,1.5,3.9c0.5,2.1,0.6,4.3,0.5,6.4c0,1.3,0.2,2.5,0.6,3.7c0.4,1.4,0.8,2.9,1.3,4.3
					c0.3,0.9,0.6,1.9,1,2.8c0.3,0.8,0.6,1.6,0.9,2.4c0,0.1,0.2,0.3,0.3,0.3h-1.8c0-0.7-0.2-1.3-0.5-2s-0.7-1.4-0.9-2.2
					c-0.7-2-1.3-4-2-6c-0.4-1.2-0.7-2.5-0.7-3.8c0-1,0-2.1,0-3.1c-0.1-2-0.5-4-1.5-5.8c-0.6-1.1-1.1-2.2-1.6-3.3
					c-0.6-1.4-1.2-2.8-1.4-4.2c-0.4-2.6-0.2-5.1,0-7.7c0.1-1.4,0.3-2.8,0.1-4.3c-0.6-4.4-2-8.5-3-12.8c-0.1-0.4-0.3-0.7-0.5-1h-0.1
					c0,0.1,0,0.2,0,0.3c0.1,4.3,0.3,8.6,0.4,12.9c0.1,4.8,0.1,9.6,0.6,14.4c0.7,6.9,2.6,13.5,5.3,19.8c1.2,2.9,2.6,5.8,3.9,8.6
					c0,0.1,0.2,0.2,0.2,0.2l-2.4,0.1c-0.1-0.2-0.2-0.4-0.3-0.6c-2.7-5.1-5.4-10.2-8.2-15.4c-0.2-0.3-0.3-0.6-0.5-0.8
					c-2.5-3.9-5.5-7.3-8.8-10.6c-1.8-1.8-3.6-3.4-5.5-5.2c0,0,0,0-0.1,0l0.1,0.1c2.6,3.4,4.5,7.3,6.1,11.3c1.2,3,3,5.6,5.5,7.7
					c2.4,2,4.3,4.4,5.6,7.2c0.9,2,1.6,4,2.4,5.9l-1.5,0.6c-0.1-0.3-0.2-0.5-0.3-0.7c-0.4-1-1-2-1.3-3.1c-1.3-3.6-3.3-6.7-6.3-9.2
					c-2.6-2.1-4.4-4.8-5.5-7.9c-1.2-3.4-2.8-6.6-4.7-9.7c-1.4-2.2-2.8-4.3-5-5.8c-0.1-0.1-0.2-0.1-0.4-0.2c0.1,0.2,0.1,0.3,0.1,0.4
					c1.2,3.2,2.6,6.3,3.7,9.5c2,5.8,4.7,11.2,8.3,16.2c2.4,3.3,5.1,6.4,8.1,9.2c0.5,0.5,1,0.9,1.5,1.4c0.1,0.1,0.2,0.1,0.3,0.1
					l-1.7,0.1l0,0l37.6,0.1L163.6,70.7z"/>
			</g>
			<path class="st4" d="M176.8,70.7c-2.9,0.3-3.1-0.1-3.1-0.1c1.3-0.7,2.6-1.6,3.6-2.8c2.6-2.8,5.2-5.7,7.8-8.5
				c2.7-2.9,5.5-5.8,7.9-9c2.5-3.4,5.1-6.7,7.1-10.5c0.1-0.1,0.2-0.3,0.2-0.5c-0.1,0-0.2,0.1-0.3,0.2c-1,0.8-1.9,1.7-2.9,2.5
				c-1.5,1.1-3.2,2.2-4.7,3.3c-1.2,0.8-2.2,1.7-3,2.9c-0.8,1.3-1.6,2.6-2.3,3.9c-1.1,2-2.4,3.7-4.2,5c-0.7,0.5-1.3,1-2,1.5
				c-2.8,2.2-5,4.9-6.3,8.3c-0.3,0.9-1,1.6-1.5,2.4c-0.2,0.4-0.6,0.7-0.9,1.1l0,0c0,0.1,0.1,0.2,0,0.2c-1.4,0.2-1.7-0.4-1.7-0.4
				c0.4-0.5,0.8-1,1.2-1.5c0.7-0.8,1.2-1.6,1.5-2.6c1.1-3.1,3.1-5.6,5.6-7.6c1.2-1,2.4-1.9,3.7-2.8c0.9-0.7,1.7-1.6,2.3-2.6
				c0.5-0.7,1-1.5,1.4-2.3c1.6-2.7,3.5-5.1,6.2-6.8c2.3-1.5,4.5-3.1,6.5-5c0.2-0.2,0.5-0.4,0.7-0.6c-0.6,0.2-1.2,0.6-1.7,0.8
				c-2.3,1.2-4.6,2.3-6.9,3.5s-4.4,2.5-6.3,4.2c-4.8,4.2-8.8,9.1-12.3,14.4c-1.6,2.4-3.2,4.9-4.8,7.4c-0.4,0.6-0.7,1.3-1.1,1.9l0,0
				c0,0.1,0.1,0.1,0.1,0.2l-3-0.1c0.1,0,0.3-0.1,0.3-0.2c0.7-0.9,1.4-1.8,2-2.7c4.5-6.8,9.2-13.5,14-20.1
				c4.2-5.8,7.7-11.9,10.1-18.7c1.9-5.5,4.2-10.9,6.8-16.2c0-0.1,0.1-0.2,0.1-0.3c-0.2,0-0.3,0.1-0.4,0.2c-1.1,1.1-2.3,2.2-3.3,3.5
				c-1.5,1.8-2.5,3.9-3.4,6.1c-1,2.4-2.5,4.3-4.4,6c-0.9,0.8-1.9,1.6-2.8,2.4c-1.6,1.5-2.9,3.1-3.8,5.1c-0.6,1.5-1.2,3-1.8,4.5
				c-1.6,4.4-3.6,8.5-6.8,12c-1.3,1.5-2,3.3-2.5,5.2c-0.3,1-0.4,2.1-0.7,3.1c-1.1,3.7-3.1,6.8-5.5,9.9l-1.2-0.2
				c0.1-1.1,0.7-1.8,1.3-2.6c2.1-2.7,3.7-5.6,4.4-9c0.7-3.3,2.1-6.3,4.5-8.8c1-1.1,1.9-2.3,2.7-3.6c1.7-3,3.1-6.2,4.3-9.5
				c0.8-2.3,2-4.4,3.8-6.1c0.8-0.8,1.7-1.5,2.6-2.2c2.6-2.2,4.7-4.7,6-7.8c0.6-1.4,1.3-2.7,2.1-3.9c1.3-2,2.5-4,4.6-5.2l0,0
				c0,0,0-0.1-0.1-0.1c-1.3,0.6-2.7,1.2-4,2c-8.8,4.9-15.5,11.9-20.8,20.3c-0.7,1.1-1.3,2.2-1.9,3.3c-1.4,2.9-2.8,5.9-4,8.9
				c-1.3,3.3-2.3,6.7-3.4,10.1c-0.5,1.6-1.2,3.1-1.5,4.8c-0.6,3.1-1.4,6.1-2.3,9.1c0,0.1,0,0.2-0.1,0.4l-1.7-0.5
				c0.2-1.2,0.5-2.5,0.7-3.7c0.5-2.7,0.9-5.4,1.3-8.1c0.6-3.6,1.2-7.2,1.2-10.9c0-4.3-0.1-8.7-0.6-13c-0.4-3.2-0.7-6.5-1.1-9.7
				c-0.3-2.4-0.5-4.9-0.8-7.3c-0.4-2.9-0.8-5.9-1.3-8.8c-0.1-0.9-0.2-1.8-0.3-2.6l0,0h-0.1c-0.3,0.7-0.6,1.3-1,2
				c-1.6,3.3-2,6.8-1.7,10.4c0.2,2.2,0.5,4.5,0.8,6.7c0.4,3,0.2,6-0.9,8.8c-0.4,1.1-0.8,2.1-1.2,3.2c-0.8,2.1-1.2,4.3-1,6.6
				c0.1,1.5,0.4,3,0.7,4.5c0.5,2.8,1.1,5.5,0.9,8.3c-0.1,1.5-0.4,2.9-0.6,4.4c-0.2,1.3-0.4,2.6-0.6,4c-0.2,1.8,0.4,3.6,0.6,5.4
				c0,0.1,0.2,0.2,0.4,0.2l-1.5-0.1l0,0c-0.1-0.8-0.2-1.5-0.4-2.2c-0.4-1.7-0.7-3.4-0.4-5.1c0.2-1.2,0.3-2.5,0.6-3.7
				c0.5-2.5,0.7-5,0.2-7.6c-0.3-1.7-0.6-3.3-1-5c-0.9-3.8-0.6-7.5,0.9-11c0.4-1.1,0.8-2.1,1.2-3.2c0.7-1.9,1.1-3.8,0.9-5.8
				c-0.2-2.1-0.4-4.2-0.7-6.3c-0.3-2.4-0.4-4.7,0-7.1c0.2-1.3,0.6-2.6,0.9-3.9c0,0.1-0.1,0.3-0.2,0.4c-1.9,4.4-3.5,8.9-4.8,13.5
				c-1.4,4.9-2.8,9.8-3.4,14.8c-0.3,2.7-0.7,5.5-0.8,8.2c0,3.1,0.3,6.3,0.6,9.4c0.2,1.9,0.5,3.9,0.8,5.8c0.5,2.7,0.9,5.4,1.4,8.2
				c0,0.1,0.2,0.3,0.3,0.3l-1.9,0.1c-0.2-0.7-0.4-1.3-0.5-2c-0.4-2.4-0.8-4.8-1.2-7.2c-0.3-2-0.5-4.1-0.8-6.1
				c-0.7-5.1-1.5-10.1-2.3-15.2c-0.5-3.4-1.1-6.7-2.3-10c-1.5-4.2-3.8-7.9-6.2-11.5c0-0.1-0.1-0.1-0.1-0.2l0,0l-0.1,0.1
				c0,0.2,0.1,0.4,0.1,0.5c0.4,1.2,0.7,2.5,1.1,3.7c0.9,3.3,1.4,6.6,1.1,10.1c-0.1,1.8-0.2,3.5-0.2,5.3c0,1.3,0.2,2.5,0.7,3.7
				c0.7,1.7,1.5,3.4,2.3,5c0.6,1.3,1.2,2.5,1.5,3.9c0.5,2.1,0.6,4.3,0.5,6.4c0,1.3,0.2,2.5,0.6,3.7c0.4,1.4,0.8,2.9,1.3,4.3
				c0.3,0.9,0.6,1.9,1,2.8c0.3,0.8,0.6,1.6,0.9,2.4c0,0.1,0.2,0.3,0.3,0.3h-1.8l0,0c0-0.7-0.2-1.3-0.5-2s-0.7-1.4-0.9-2.2
				c-0.7-2-1.3-4-2-6c-0.4-1.2-0.7-2.5-0.7-3.8c0-1,0-2.1,0-3.1c-0.1-2-0.5-4-1.5-5.8c-0.6-1.1-1.1-2.2-1.6-3.3
				c-0.6-1.4-1.2-2.8-1.4-4.2c-0.4-2.6-0.2-5.1,0-7.7c0.1-1.4,0.3-2.8,0.1-4.3c-0.6-4.4-2-8.5-3-12.8c-0.1-0.4-0.3-0.7-0.5-1h-0.1
				c0,0.1,0,0.2,0,0.3c0.1,4.3,0.3,8.6,0.4,12.9c0.1,4.8,0.1,9.6,0.6,14.4c0.7,6.9,2.6,13.5,5.3,19.8c1.2,2.9,2.6,5.8,3.9,8.6
				c0,0.1,0.2,0.2,0.2,0.2l-2.4,0.1c-0.1-0.2-0.2-0.4-0.3-0.6c-2.7-5.1-5.4-10.2-8.2-15.4c-0.2-0.3-0.3-0.6-0.5-0.8
				c-2.5-3.9-5.5-7.3-8.8-10.6c-1.8-1.8-3.6-3.4-5.5-5.2l0,0c0,0,0,0-0.1,0l0.1,0.1c2.6,3.4,4.5,7.3,6.1,11.3c1.2,3,3,5.6,5.5,7.7
				c2.4,2,4.3,4.4,5.6,7.2c0.9,2,1.6,4,2.4,5.9l-1.5,0.6l0,0c-0.1-0.3-0.2-0.5-0.3-0.7c-0.4-1-1-2-1.3-3.1c-1.3-3.6-3.3-6.7-6.3-9.2
				c-2.6-2.1-4.4-4.8-5.5-7.9c-1.2-3.4-2.8-6.6-4.7-9.7c-1.4-2.2-2.8-4.3-5-5.8c-0.1-0.1-0.2-0.1-0.4-0.2c0.1,0.2,0.1,0.3,0.1,0.4
				c1.2,3.2,2.6,6.3,3.7,9.5c2,5.8,4.7,11.2,8.3,16.2c2.4,3.3,5.1,6.4,8.1,9.2c0.5,0.5,1,0.9,1.5,1.4c0.1,0.1,0.2,0.1,0.3,0.1
				l-2.7,0.2c0.1-0.1,0.1-0.1,0.2-0.2c-0.1,0-0.3-0.1-0.4-0.1c-2.7-2.4-5.1-5-7.1-8c-2.8-4.2-5.4-8.5-7.4-13.1
				c-1.2-2.7-2.1-5.4-3.1-8.1c-1.5-3.7-3-7.3-4.5-11c-0.2-0.4-0.5-0.9-0.7-1.3c-0.3-0.4-0.3-0.8,0-1c0.3-0.3,0.6-0.2,1,0.1
				c0.9,0.8,1.8,1.5,2.7,2.3c3.8,3.4,7.6,6.9,11.3,10.4s7.1,7.2,9.8,11.5c0.2,0.2,0.3,0.5,0.5,0.7c0-0.1,0-0.2-0.1-0.4
				c-1.9-6.5-2.5-13.2-2.3-20c0.2-5.9,0.1-11.7-0.3-17.5c-0.1-1.3-0.1-2.5-0.3-3.8c-0.1-0.8-0.3-1.6-0.5-2.5c-0.1-0.5,0-1,0.4-1.1
				c0.4-0.2,0.9,0,1.1,0.5c1.3,3.1,3.3,5.7,5.2,8.4c1.7,2.4,3.2,4.8,4.6,7.3c1.7,3.3,2.7,6.9,3.4,10.6c0.5,2.9,0.8,5.9,1.2,8.9
				c0,0.2,0.1,0.5,0.2,0.7c0.1-1.4,0.2-2.8,0.3-4.2c0.4-3.9,1.2-7.7,2-11.5c1-4.5,2.6-8.8,3.9-13.2c1.4-4.7,3.3-9.1,5.6-13.4
				c0.2-0.4,0.4-0.7,0.6-1c0.3-0.4,0.7-0.7,1.2-0.7c0.6,0.1,0.9,0.5,1,1c0.1,0.7,0.2,1.4,0.3,2.1c0.3,4.2,1,8.4,1.5,12.6
				c0.5,3.4,0.9,6.8,1.3,10.2s0.9,6.8,1.2,10.2c0.4,4.6,0.5,9.2,0.3,13.8c0,0.5,0,0.9,0,1.5c0.1-0.2,0.1-0.4,0.2-0.6
				c1.6-5,3.8-9.7,6.1-14.4c1.9-4.1,4.4-7.8,7.3-11.2c2.6-3,5.2-5.9,8.3-8.5c1.8-1.5,3.7-2.8,5.8-3.8c2.6-1.3,5.2-2.9,8.1-3.6
				c0.1,0,0.2-0.1,0.3-0.1c1-0.2,1.7,0.4,1.5,1.4c-0.1,0.5-0.4,1.1-0.6,1.6c-0.7,1.6-1.4,3.1-2.2,4.7c-1.7,3.4-3,7-4.3,10.6
				c-2.3,6.3-5.2,12.2-9,17.7c-0.1,0.2-0.2,0.3-0.3,0.6c0.1,0,0.1-0.1,0.2-0.1c3.1-2.7,6.6-4.8,10.3-6.5c1.1-0.5,2.3-1.1,3.4-1.7
				c1.7-0.9,3.3-1.9,4.8-3.1c0.1-0.1,0.3-0.2,0.4-0.3c0.4-0.2,0.8-0.3,1.1,0c0.4,0.2,0.5,0.6,0.5,1c0,0.3-0.2,0.7-0.3,1
				c-1.1,3-2.7,5.8-4.6,8.4c-2.7,3.7-5.2,7.5-8.4,10.9c-2.4,2.6-4.8,5.3-7.3,8c-1.8,1.9-3.6,3.9-5.4,5.8
				C177.8,69.8,177.3,70.2,176.8,70.7L176.8,70.7"/>
		</g>
		<g>
			<path class="st1" d="M131.3,177.4c-0.8,0-1.8-0.2-2.7-0.8c-1.5-1.1-2.3-3-2.4-5.8c-0.1-3.9,5.7-7.1,12.3-10.8
				c6.4-3.5,13.6-7.5,13.6-11.5c-0.1-6.8-11.5-19.6-15.8-23.9c-0.5-0.5-0.5-1.3,0-1.8s1.3-0.5,1.8,0c0.7,0.7,16.5,16.4,16.6,25.7
				c0.1,5.5-7.5,9.7-14.9,13.7c-5.2,2.9-11.1,6.1-11,8.6c0,1.9,0.5,3.2,1.3,3.8c0.9,0.6,2,0.3,2,0.3c0.7-0.2,1.4,0.1,1.6,0.8
				c0.2,0.7-0.1,1.4-0.8,1.6C132.8,177.2,132.2,177.4,131.3,177.4z"/>
			<path class="st1" d="M172.4,176.1c-0.2,0-0.5,0-0.7,0c-3.6-0.2-7.9-4.2-8.5-33.9v-0.9c-0.2-7,1.6-17.4,1.6-17.9
				c0.1-0.7,0.8-1.2,1.5-1c0.7,0.1,1.2,0.8,1,1.5c0,0.1-1.7,10.6-1.6,17.4v0.9c0.2,9.4,1.2,31.2,6.1,31.4c5.7,0.3,6.8-3.3,6.9-3.4
				c0.2-0.7,0.9-1.1,1.6-0.9s1.1,0.9,0.9,1.5C181,171,179.6,176.1,172.4,176.1z"/>
		</g>
		<g>
			<path class="st1" d="M190.3,97c-0.4,0-0.7,0-0.7,0c-0.7-0.1-1.2-0.7-1.1-1.4s0.7-1.2,1.4-1.1c0.1,0,5.6,0.4,10.3-3.9
				c4.4-4.1,6.6-11,6.6-20.5l-6.2-4.9c-0.5-0.4-0.6-1.2-0.2-1.8c0.4-0.5,1.2-0.6,1.8-0.2l6.6,5.2c0.3,0.2,0.5,0.6,0.5,1
				c0.1,10.6-2.4,18.3-7.5,23C197.2,96.6,192.1,97,190.3,97z"/>
			<path class="st1" d="M208,70.7c-0.2,0-0.3,0-0.5-0.1c-0.4-0.2-0.7-0.6-0.8-1.1l-0.5-9.2c0-0.7,0.5-1.3,1.2-1.3s1.3,0.5,1.3,1.2
				l0.4,6.7l4.7-3.8c0.5-0.4,1.3-0.4,1.8,0.2c0.4,0.5,0.4,1.3-0.2,1.8l-6.6,5.3C208.5,70.6,208.2,70.7,208,70.7z"/>
			<g>
				<g>
					<path class="st1" d="M208.3,65.5c-1.5-0.2-2.9,0.9-3.1,2.4s0.9,2.9,2.4,3.1c1.5,0.2,2.9-0.9,3.1-2.4
						C210.9,67.1,209.8,65.7,208.3,65.5z"/>
				</g>
			</g>
		</g>
		<path class="st1" d="M179.4,85.5c-0.3,0-0.6-0.1-0.9-0.4c-0.5-0.5-0.5-1.3,0-1.8l3.6-3.6c0.5-0.5,1.3-0.5,1.8,0s0.5,1.3,0,1.8
			l-3.6,3.6C180.1,85.4,179.8,85.5,179.4,85.5z"/>
		<path class="st1" d="M173.9,85.5c-0.3,0-0.6-0.1-0.9-0.4c-0.5-0.5-0.5-1.3,0-1.8l3.6-3.6c0.5-0.5,1.3-0.5,1.8,0s0.5,1.3,0,1.8
			l-3.6,3.6C174.5,85.4,174.2,85.5,173.9,85.5z"/>
		<path class="st1" d="M168.3,85.5c-0.3,0-0.6-0.1-0.9-0.4c-0.5-0.5-0.5-1.3,0-1.8l3.6-3.6c0.5-0.5,1.3-0.5,1.8,0s0.5,1.3,0,1.8
			l-3.6,3.6C169,85.4,168.7,85.5,168.3,85.5z"/>
		<path class="st1" d="M192.8,68.5h-32h-21.6h-24.6c-3.5,0-6.3,2.8-6.3,6.3s2.9,6.3,6.3,6.3h40.6c0.7,0,1.3-0.6,1.3-1.3
			s-0.6-1.3-1.3-1.3h-40.6c-2,0-3.7-1.7-3.7-3.7s1.6-3.7,3.7-3.7h24.6h21.6h32c2.1,0,3.7,1.7,3.7,3.7s-1.7,3.7-3.7,3.7h-2.7
			c-0.7,0-1.3,0.6-1.3,1.3s0.6,1.3,1.3,1.3h2.7c3.4,0,6.3-2.8,6.3-6.3S196.3,68.5,192.8,68.5z"/>
		<g>
			<path class="st1" d="M174.4,124.6H133c-7.4,0-11.7-8-13.2-15.4l-5.9-28.8c-0.1-0.7,0.3-1.3,1-1.5c0.7-0.1,1.3,0.3,1.5,1l5.9,28.8
				c1.3,6.2,4.9,13.4,10.8,13.4h41.4c5.9,0,9.5-7.2,10.8-13.4l5.9-28.8c0.1-0.7,0.8-1.1,1.5-1s1.1,0.8,1,1.5l-5.9,28.8
				C186.1,116.7,181.8,124.6,174.4,124.6z"/>
		</g>
		<path class="st1" d="M129.1,99.4c-0.6,0-1.1-0.4-1.2-1c-0.5-2.7,1.4-5.4,4.1-5.8c2.7-0.5,5.4,1.4,5.8,4.1c0.1,0.7-0.3,1.3-1,1.4
			c-0.7,0.1-1.3-0.3-1.4-1s-0.5-1.3-1-1.6c-0.6-0.4-1.2-0.5-1.9-0.4c-0.7,0.1-1.3,0.5-1.6,1c-0.4,0.6-0.5,1.2-0.4,1.9
			s-0.3,1.3-1,1.4C129.2,99.4,129.2,99.4,129.1,99.4z"/>
		<path class="st1" d="M177.6,99.4c-0.1,0-0.1,0-0.2,0c-0.7-0.1-1.1-0.8-1-1.4c0.1-0.7,0-1.3-0.4-1.9c-0.4-0.6-1-0.9-1.6-1
			c-1.4-0.2-2.7,0.7-3,2.1c-0.1,0.7-0.8,1.1-1.4,1c-0.7-0.1-1.1-0.8-1-1.4c0.5-2.7,3.1-4.6,5.8-4.1c1.3,0.2,2.5,1,3.3,2.1
			s1.1,2.4,0.8,3.8C178.8,99,178.2,99.4,177.6,99.4z"/>
		<path class="st1" d="M153,114.4c-4.8,0-8.7-3.9-8.7-8.7c0-0.7,0.6-1.2,1.2-1.2s1.2,0.6,1.2,1.2c0,3.4,2.8,6.2,6.2,6.2
			s6.2-2.8,6.2-6.2c0-0.7,0.6-1.2,1.2-1.2s1.2,0.6,1.2,1.2C161.7,110.5,157.8,114.4,153,114.4z"/>
		<g>
			<path class="st1" d="M108.4,125.9c-0.3,0-0.6-0.1-0.9-0.4c-0.5-0.5-0.5-1.3,0-1.8c9.6-9.7,8.5-33,8.5-33.2c0-0.7,0.5-1.3,1.2-1.3
				s1.3,0.5,1.3,1.2c0.1,1,1.2,24.7-9.2,35.1C109,125.8,108.7,125.9,108.4,125.9z"/>
		</g>
	</g>
</g>
</svg>
