<?xml version="1.0" encoding="utf-8"?>
<!-- Generator: Adobe Illustrator 23.0.2, SVG Export Plug-In . SVG Version: 6.00 Build 0)  -->
<svg version="1.1" id="Calque_1" xmlns="http://www.w3.org/2000/svg" xmlns:xlink="http://www.w3.org/1999/xlink" x="0px" y="0px"
	 viewBox="0 0 17 17" style="enable-background:new 0 0 17 17;" xml:space="preserve">
<style type="text/css">
	.st0{fill:#FFFFFF;}
</style>
<path id="Tracé_105" class="st0" d="M8.5,11.9c1.8,0,3.3-1.5,3.3-3.3s-1.5-3.3-3.3-3.3c-1.8,0-3.3,1.5-3.3,3.3
	C5.2,10.4,6.6,11.9,8.5,11.9z M8.5,6.1c1.4,0,2.5,1.1,2.5,2.5S9.9,11,8.5,11C7.1,11,6,9.9,6,8.6C6,7.2,7.1,6.1,8.5,6.1
	C8.5,6.1,8.5,6.1,8.5,6.1L8.5,6.1z M12.2,6.4H17v7.3c0,1.8-1.5,3.3-3.3,3.3h0H3.4C1.5,17,0,15.5,0,13.6V6.4h4.8
	C4.4,7,4.2,7.8,4.2,8.6c0,2.4,1.9,4.3,4.3,4.3c2.4,0,4.3-1.9,4.3-4.3c0,0,0,0,0,0C12.8,7.8,12.6,7,12.2,6.4L12.2,6.4z M13.6,0H5v3.5
	H4.2V0H3.5v3.5H2.8V0.1c-0.2,0-0.5,0.1-0.7,0.2v3.3H1.4V0.6C0.5,1.3,0,2.3,0,3.3v2.3h5.3c1.6-1.8,4.3-1.9,6.1-0.3
	c0.1,0.1,0.2,0.2,0.3,0.3H17V3.3C17,1.5,15.5,0,13.6,0C13.6,0,13.6,0,13.6,0z M15.6,3.7c0,0.3-0.2,0.5-0.5,0.5h-1.8
	c-0.3,0-0.5-0.2-0.5-0.5c0,0,0,0,0,0V1.9c0-0.3,0.2-0.5,0.5-0.5c0,0,0,0,0,0H15c0.3,0,0.5,0.2,0.5,0.5L15.6,3.7z"/>
</svg>
