<?xml version="1.0" encoding="utf-8"?>
<!-- Generator: Adobe Illustrator 23.0.6, SVG Export Plug-In . SVG Version: 6.00 Build 0)  -->
<svg version="1.1" id="Calque_1" xmlns="http://www.w3.org/2000/svg" xmlns:xlink="http://www.w3.org/1999/xlink" x="0px" y="0px"
	 viewBox="0 0 248.5 145.1" style="enable-background:new 0 0 248.5 145.1;" xml:space="preserve">
<style type="text/css">
	.st0{fill:#354463;}
</style>
<g>
	<g>
		<path class="st0" d="M112.3,64.8l-1.8-0.6c-3.4,5.5-7.9,8.2-13.5,8c-2.3,0-4.5-0.6-6.5-2c-2-1.3-3.6-3.5-4.9-6.5
			s-1.9-6.7-1.9-11.2c0-2.2,0-3.8,0.1-4.8h28.5c0-15.1-6.4-22.6-19.1-22.6c-7.5,0-13.6,2.5-18.1,7.3s-6.8,11.8-6.8,21
			c0,9,2.2,15.7,6.4,20.3c4.2,4.6,9.9,6.9,17.1,6.9c5.3,0,9.6-1.5,13.1-4.6C108.5,73,110.8,69.2,112.3,64.8z M86.8,31.9
			c1.5-3,3.6-4.5,6.1-4.5c2.3,0,4.1,1.7,5.3,5.2s1.7,7.9,1.6,13.3h-16C84.1,39.6,85.1,34.9,86.8,31.9z"/>
		<path class="st0" d="M8.5,11.9v79.2H0v2h8.5v34.4c0,3.7,0.3,6.7,0.8,8.8s1.5,3.9,2.9,5.3c2.3,2.3,5.7,3.5,10.2,3.5
			c6.7,0,11.3-3.5,13.9-10.5l-1.7-0.9c-1.7,4.1-4,6.1-6.9,6.1c-1.6,0-2.7-0.5-3.4-1.3s-1.1-2.3-1.1-4.3V93.1h12v-2h-12V77.6
			c2.9,2.4,6.1,3.1,10.8,3.1c6.9,0,12.5-2.4,16.8-7.1s6.5-12,6.5-22c0-8.6-1.7-15.1-5.1-19.6c-3.4-4.5-7.8-6.8-13.3-6.8
			c-3.6,0-6.7,0.8-9.4,2.5s-4.9,4.3-6.3,7.4V0c-4.1,0.9-8.9,1.2-14.8,1.2c-2.1,0-4.2-0.1-6.3-0.3V3C2.2,3,8.5,2.7,8.5,11.9z
			 M26.8,32.1c1.8-1.6,3.8-2.4,6-2.4c2.9,0,5.1,1.8,6.7,5.4c1.5,3.7,2.3,9.7,2.3,18c0,8.6-0.9,15-2.7,19.2s-4.6,6.3-8.4,6.3
			c-2.8,0-5.3-0.9-7.5-2.7V38.6C23.8,35.8,25.1,33.7,26.8,32.1z"/>
		<path class="st0" d="M86.8,112.1c0-15.1-6.4-22.6-19.1-22.6c-7.5,0-13.6,2.5-18.1,7.3s-6.8,11.8-6.8,21c0,9,2.2,15.7,6.4,20.3
			s9.9,6.9,17.1,6.9c5.3,0,9.6-1.5,13.1-4.6c3.5-3,5.9-6.8,7.3-11.2l-1.8-0.6c-3.4,5.4-7.9,8.1-13.5,8c-2.3,0-4.5-0.6-6.5-2
			c-2-1.3-3.6-3.5-4.9-6.5s-1.9-6.7-1.9-11.2c0-2.2,0-3.8,0.1-4.8L86.8,112.1L86.8,112.1z M61.2,96.3c1.6-3,3.6-4.5,6.1-4.5
			c2.3,0,4.1,1.7,5.3,5.2s1.7,7.9,1.6,13.3h-16C58.5,104,59.5,99.3,61.2,96.3z"/>
		<path class="st0" d="M141.7,140.7c-0.9,0-1.5-0.3-1.8-1s-0.5-1.9-0.5-3.5v-27.7c0-3.7-0.3-6.6-0.8-8.8s-1.5-4-3-5.5
			c-1.6-1.7-3.7-2.8-6.1-3.5s-5.3-1-8.6-1c-3.2,0-6.1,0.3-8.8,0.9s-5,1.4-6.8,2.5c-1.9,1.1-3.3,2.4-4.2,3.7
			c-0.9,1.3-1.4,2.9-1.4,4.8c0,2.2,0.6,4.1,1.9,5.6s3.1,2.2,5.5,2.2c2.2,0,4.1-0.6,5.7-2c1.5-1.4,2.3-3.2,2.3-5.5
			c0-1.8-0.5-3.4-1.6-4.8c-1-1.4-2.5-2.4-4.4-3.1c1.7-1.6,4.1-2.4,7.4-2.4c2.8,0,4.9,0.8,6.2,2.4s2,3.9,2,6.7v7.9
			c0,1.8-0.9,3.2-2.6,4.3c-1.7,1-4.5,2.2-8.2,3.5c-3.5,1.3-6.4,2.4-8.7,3.5s-4.2,2.6-5.8,4.6S97,129,97,132.1c0,3.7,1.1,6.7,3.2,8.9
			s5.4,3.3,9.9,3.5c6.6,0,11.6-2.7,15-8.2c0,2.5,0.8,4.5,2.3,6c1.5,1.5,4.1,2.2,7.8,2.2c4.4,0,8.1-1.3,11.2-3.8l-1-1.7
			C143.9,140.1,142.7,140.7,141.7,140.7z M124.5,133.7c-1.9,2.7-4.2,4.1-6.9,4.2c-1.9,0-3.4-0.7-4.6-2c-1.1-1.4-1.7-3.4-1.7-6.2
			c0-3.2,0.6-5.6,2-7.3s3.4-3.4,6-5.1c2.7-1.7,4.4-3.1,5.2-4.5V133.7z"/>
		<path class="st0" d="M181.4,112.6l-3-2.1c-3.3-2.4-5.7-4.4-7.3-6.1c-1.5-1.7-2.3-3.7-2.3-6c0-2.1,0.7-3.6,2-4.8
			c1.3-1.1,3-1.7,5-1.7c3.9,0,6.9,1.5,9,4.5c2,3,3.4,6.7,4,11.2h2.1c0-8.5,0.1-14.4,0.4-17.9h-2c-0.2,1.2-0.5,2.2-0.9,2.8
			c-0.5,0.7-1,1-1.6,1c-0.5,0-1.1-0.2-1.8-0.7c-1.2-0.8-2.8-1.6-5-2.2c-2.2-0.7-4.6-1-7.3-0.9c-4.9,0-9,1.3-12.4,3.8
			s-5.1,6-5.1,10.3c0,2.5,0.6,4.8,1.7,6.8s2.5,3.8,4.1,5.3s3.9,3.5,7,5.9c2.6,2.1,4.5,3.6,5.8,4.8s2.4,2.5,3.2,4
			c0.9,1.5,1.3,3.2,1.3,5.1c0,2.4-0.7,4.2-2.1,5.4c-1.4,1.2-3,1.8-5,1.8c-7.8,0-12.3-6.2-13.7-18.7h-2.2c0,9.7-0.1,16.4-0.4,20.3
			h2.1c0.3-1.3,0.7-2.3,1.2-2.9c0.5-0.7,1.1-0.9,1.8-0.7c1,0.3,2.5,1,4.7,2.1c2.7,1.4,5.9,2.1,9.6,2.1c3.6,0,6.8-0.6,9.7-1.8
			s5.3-3,7-5.3s2.6-4.9,2.6-7.9c0-3.7-1-6.8-3-9.2C188.6,118.5,185.5,115.7,181.4,112.6z"/>
		<path class="st0" d="M233.1,136.6c-2.3,0-4.5-0.6-6.5-2c-2-1.3-3.6-3.5-4.9-6.5s-1.9-6.7-1.9-11.2c0-2.2,0-3.8,0.1-4.8h28.6
			c0-15.1-6.4-22.6-19.1-22.6c-7.5,0-13.6,2.5-18.1,7.3s-6.8,11.8-6.8,21c0,9,2.2,15.7,6.4,20.3s9.9,6.9,17.1,6.9
			c5.2,0,9.6-1.5,13.1-4.6c3.5-3,5.9-6.8,7.3-11.2l-1.8-0.6C243.2,134,238.7,136.7,233.1,136.6z M222.8,96.3c1.5-3,3.6-4.5,6.1-4.5
			c2.3,0,4.1,1.7,5.3,5.2s1.7,7.9,1.6,13.3h-16C220.3,104,221.3,99.3,222.8,96.3z"/>
	</g>
</g>
</svg>
