<?xml version="1.0" standalone="no"?>
<!DOCTYPE svg PUBLIC "-//W3C//DTD SVG 20010904//EN"
 "http://www.w3.org/TR/2001/REC-SVG-20010904/DTD/svg10.dtd">
<svg version="1.0" xmlns="http://www.w3.org/2000/svg"
 width="1056.000000pt" height="1056.000000pt" viewBox="0 0 1056.000000 1056.000000"
 preserveAspectRatio="xMidYMid meet">
<metadata>
Created by potrace 1.11, written by Peter Selinger 2001-2013
</metadata>
<g transform="translate(0.000000,1056.000000) scale(0.100000,-0.100000)"
fill="#000000" stroke="none">
<path d="M6506 10537 c-31 -31 -145 -267 -194 -402 -55 -151 -176 -539 -206
-660 -50 -204 -95 -466 -97 -570 -2 -114 -16 -80 -38 92 -51 404 -100 531
-345 897 -77 114 -158 243 -180 285 -30 56 -46 76 -61 76 -17 0 -20 -6 -19
-45 0 -25 6 -85 13 -135 7 -54 16 -312 21 -640 9 -585 14 -642 69 -879 12 -49
20 -91 18 -93 -2 -2 -17 16 -32 39 -110 168 -233 300 -565 607 -265 245 -374
341 -390 341 -19 0 -23 -32 -7 -59 15 -26 178 -428 272 -671 114 -297 304
-623 482 -827 l62 -71 -237 -4 c-259 -4 -276 -7 -343 -66 -82 -72 -105 -195
-54 -298 31 -63 75 -101 148 -125 l52 -17 38 -179 38 -178 -5 -220 c-7 -311
-42 -538 -118 -755 -34 -94 -94 -220 -106 -220 -4 0 -17 19 -29 43 -83 170
-240 285 -448 328 -138 29 -357 22 -490 -15 -431 -119 -667 -443 -704 -966
-47 -659 220 -1101 724 -1201 108 -22 341 -17 437 9 229 62 424 237 543 488
52 109 53 118 11 131 -34 11 -34 10 -71 -43 -57 -82 -158 -172 -238 -210 -94
-45 -162 -57 -284 -52 -93 4 -109 8 -178 42 -119 59 -200 155 -265 314 -49
121 -64 216 -64 427 l-1 190 569 3 569 2 -6 123 c-3 67 -13 151 -21 187 l-14
65 33 51 c106 162 197 441 228 695 6 54 14 99 17 99 4 0 23 -80 44 -177 45
-211 72 -297 135 -418 110 -213 256 -305 483 -305 l66 0 90 -97 c258 -279 455
-562 512 -733 70 -209 -4 -295 -480 -565 -363 -205 -468 -284 -512 -381 -17
-39 -19 -58 -13 -108 3 -33 13 -76 21 -95 8 -19 13 -36 11 -37 -2 -2 -53 1
-114 6 -136 12 -352 -1 -478 -28 -181 -40 -297 -96 -395 -192 -82 -81 -104
-133 -105 -250 0 -84 3 -101 28 -152 56 -114 152 -165 291 -155 180 12 288
124 289 298 1 63 -4 86 -26 130 -32 66 -84 118 -156 157 l-54 30 39 26 c73 48
120 60 244 60 101 1 122 -2 168 -23 64 -29 114 -85 144 -160 20 -51 23 -77 26
-289 3 -170 0 -243 -9 -265 -33 -86 -116 -134 -430 -252 -335 -127 -418 -170
-522 -272 -109 -108 -156 -255 -136 -425 10 -89 18 -118 53 -187 54 -106 150
-177 281 -211 130 -32 297 -30 410 7 129 41 254 130 322 228 21 30 41 54 44
55 3 0 9 -22 12 -49 12 -100 80 -192 173 -231 63 -28 213 -42 315 -30 121 14
241 59 326 122 l32 24 -19 32 -20 32 -53 -30 c-52 -29 -117 -39 -143 -22 -38
25 -39 35 -45 782 -7 771 -10 816 -58 925 -30 68 -84 138 -141 181 -33 25 -47
41 -40 48 14 14 13 59 -2 74 -7 7 -33 12 -59 12 -26 0 -55 3 -64 6 -28 11 -55
79 -55 139 0 53 3 59 46 105 61 65 108 95 423 276 303 173 403 243 477 333 58
70 84 131 84 199 0 183 -182 494 -494 845 -47 53 -86 99 -86 102 0 3 221 5
491 5 l491 0 -6 -33 c-12 -64 -45 -374 -51 -487 -12 -202 23 -799 60 -1026 35
-217 89 -377 148 -441 16 -18 17 -23 6 -27 -8 -2 -43 -12 -79 -21 -185 -49
-341 -165 -405 -302 -85 -180 -64 -387 60 -572 58 -89 166 -190 420 -397 228
-185 297 -255 343 -347 57 -113 60 -263 6 -355 -28 -47 -95 -96 -154 -112 -52
-15 -148 -12 -215 5 -213 55 -346 261 -404 623 l-17 107 -41 3 -41 3 -6 -203
c-3 -112 -8 -297 -10 -411 l-5 -208 41 3 c38 3 41 5 59 52 26 70 56 99 95 93
18 -3 90 -32 160 -65 184 -85 236 -96 424 -96 127 0 171 4 245 22 353 88 554
342 516 650 -31 243 -131 359 -626 728 -188 140 -276 223 -316 297 -32 59 -34
67 -34 162 0 95 2 102 30 145 108 159 389 158 548 -2 87 -87 171 -272 201
-443 l11 -60 41 -3 41 -3 7 328 c4 180 9 342 9 358 2 28 -1 30 -36 33 -24 2
-38 -1 -41 -10 -26 -99 -54 -138 -98 -138 -15 0 -70 21 -121 48 -50 26 -127
56 -170 67 -42 10 -77 23 -77 27 0 4 4 8 10 8 18 0 91 73 111 111 32 64 21 99
-32 99 -22 0 -33 -9 -53 -45 -48 -81 -133 -125 -241 -125 -48 0 -56 3 -88 39
-83 92 -134 342 -168 826 -25 358 -15 694 32 1018 l11 77 152 0 c241 0 326 27
433 137 91 93 157 212 208 376 14 45 50 197 79 337 l53 255 62 7 c194 22 380
131 494 291 118 165 174 345 197 628 11 129 11 132 46 175 20 24 78 77 130
119 95 77 112 103 82 133 -26 26 -63 12 -145 -53 -113 -91 -118 -87 -126 104
-4 76 -8 97 -23 108 -23 17 -35 16 -59 -1 -17 -12 -19 -26 -16 -145 1 -72 -1
-131 -5 -131 -4 0 -45 29 -92 65 -46 36 -92 65 -102 65 -23 0 -53 -34 -48 -56
1 -10 32 -42 68 -72 72 -60 131 -115 173 -162 l28 -32 -11 -126 c-18 -207 -51
-335 -123 -477 -53 -104 -172 -225 -267 -272 -95 -46 -241 -80 -240 -55 1 4
24 124 53 266 l53 259 45 13 c25 8 67 32 92 54 110 98 113 264 5 367 -68 66
-79 67 -436 73 l-324 5 99 106 c398 428 492 539 695 823 172 239 255 446 181
446 -10 0 -57 -27 -105 -59 -48 -33 -165 -99 -260 -147 -185 -93 -284 -152
-361 -217 -26 -22 -50 -37 -53 -34 -3 2 22 47 54 99 127 200 216 388 325 679
73 196 108 277 197 464 88 185 85 218 -18 197 -82 -17 -380 -167 -482 -243
-167 -123 -414 -392 -557 -606 -96 -144 -256 -481 -361 -763 l-21 -55 -1 200
c0 279 -11 402 -84 992 -36 285 -72 583 -81 663 -21 186 -43 223 -99 167z m74
-437 c16 -118 51 -399 77 -625 45 -395 47 -421 47 -705 l1 -295 -52 -320 c-29
-176 -53 -324 -53 -328 0 -4 -51 -6 -112 -5 l-113 3 -8 55 c-7 43 -2 99 17
234 33 227 33 277 -4 491 -48 281 -44 336 49 600 50 141 57 215 36 386 -27
219 -31 411 -11 499 15 64 84 235 92 227 2 -1 17 -99 34 -217z m-181 -32 c-19
-72 -16 -248 5 -438 10 -85 16 -182 13 -216 -3 -39 -28 -128 -68 -245 l-64
-184 1 -120 c1 -91 7 -150 28 -245 39 -179 43 -277 17 -430 -32 -192 -33 -219
-18 -298 l14 -73 -81 3 -81 3 -12 70 c-70 406 -100 735 -83 921 30 324 72 521
192 909 45 148 140 406 146 400 2 -2 -2 -28 -9 -57z m1723 -14 c-53 -45 -135
-168 -205 -310 -69 -137 -147 -238 -265 -337 -152 -129 -177 -167 -277 -412
-97 -237 -132 -299 -248 -439 -87 -105 -129 -187 -171 -335 -43 -150 -70 -210
-142 -318 -55 -80 -58 -83 -95 -83 -44 0 -44 -1 -25 66 8 27 27 103 42 169 57
256 270 833 386 1045 195 356 510 690 833 883 60 35 196 107 204 107 3 0 -14
-16 -37 -36z m-2 -146 c-34 -73 -87 -196 -117 -273 -30 -77 -83 -214 -118
-305 -101 -258 -215 -455 -481 -825 -67 -94 -197 -281 -289 -415 -92 -135
-173 -251 -180 -258 -7 -8 -28 -12 -52 -10 l-40 3 54 94 c66 114 86 166 118
299 30 125 60 188 132 278 112 140 170 248 266 495 81 207 119 264 270 394
119 103 166 166 243 323 36 73 84 156 106 185 49 63 140 158 146 152 2 -2 -24
-64 -58 -137z m-2584 -143 c62 -251 74 -345 61 -505 -11 -148 -3 -283 22 -357
11 -33 45 -112 75 -177 74 -156 76 -167 85 -341 l8 -150 70 -207 69 -208 -41
0 -42 0 -66 148 c-189 423 -263 714 -286 1118 -6 93 -12 297 -16 454 -3 157
-8 326 -11 375 -10 140 11 98 72 -150z m171 -140 c102 -178 155 -331 192 -550
25 -142 102 -656 131 -874 12 -84 30 -201 40 -260 11 -58 20 -110 20 -114 0
-4 -23 -7 -52 -5 l-52 3 -28 78 c-71 197 -99 316 -104 452 -7 166 -23 230 -96
390 -102 222 -99 205 -97 485 1 259 -8 339 -61 510 -11 36 -20 71 -20 79 0 17
55 -68 127 -194z m-992 -482 c101 -102 212 -293 310 -533 66 -163 103 -218
230 -344 126 -124 188 -213 245 -349 l39 -92 -62 -3 -62 -3 -59 63 c-285 308
-416 529 -611 1036 -58 150 -105 275 -105 277 0 15 24 -2 75 -52z m390 -334
c132 -136 219 -241 300 -364 44 -68 335 -606 335 -620 0 -3 -29 -5 -63 -5
l-64 0 -28 73 c-68 174 -144 289 -264 395 -94 84 -154 167 -213 292 -28 58
-67 142 -88 187 -36 77 -97 185 -138 243 -29 42 96 -71 223 -201z m3110 145
c-27 -24 -99 -80 -160 -123 -144 -104 -205 -168 -308 -328 -74 -114 -96 -140
-164 -193 -213 -167 -246 -204 -328 -366 l-60 -119 -84 -3 -83 -3 23 38 c54
90 227 345 289 428 162 216 371 420 521 510 99 59 380 204 394 204 6 0 -12
-20 -40 -45z m50 -76 c-77 -127 -271 -385 -382 -510 -51 -57 -183 -202 -295
-323 l-204 -220 -58 -3 c-32 -2 -56 1 -54 5 2 4 19 40 38 78 70 145 134 222
292 347 106 85 147 134 233 281 77 132 96 152 254 267 75 55 156 117 181 138
25 22 47 38 49 37 2 -2 -22 -46 -54 -97z m-169 -1184 c52 -25 77 -74 72 -140
-8 -93 -63 -134 -180 -134 -83 0 -118 -16 -118 -55 0 -26 33 -55 62 -55 10 0
18 -3 18 -7 0 -24 -226 -1104 -246 -1178 -63 -226 -193 -400 -331 -441 -38
-12 -200 -14 -909 -14 -961 0 -912 -3 -1007 69 -94 70 -170 194 -221 362 -20
62 -256 1176 -256 1204 0 3 348 5 773 5 842 0 817 -2 817 55 0 57 31 55 -881
55 l-836 0 -34 23 c-92 61 -90 190 3 247 33 20 54 20 1636 20 1452 0 1607 -2
1638 -16z m-4009 -1645 c126 -47 213 -299 213 -621 l0 -108 -317 2 -317 3 3
60 c7 175 53 373 114 489 79 148 196 216 304 175z m1203 -3836 l0 -417 -57
-56 c-32 -30 -76 -64 -98 -75 -56 -27 -155 -32 -210 -11 -49 19 -107 78 -130
132 -23 55 -33 169 -24 262 17 164 89 259 321 419 62 43 131 97 153 119 22 23
41 43 43 43 1 1 2 -187 2 -416z"/>
<path d="M7082 7297 c-83 -83 -99 -116 -70 -145 26 -26 54 -11 141 76 86 86
101 114 75 140 -29 29 -62 13 -146 -71z"/>
<path d="M7303 7297 c-85 -85 -97 -111 -67 -141 30 -30 56 -18 141 67 84 84
100 116 71 145 -29 29 -61 13 -145 -71z"/>
<path d="M7523 7297 c-85 -85 -97 -111 -67 -141 30 -31 57 -19 142 67 83 83
99 116 70 145 -29 29 -61 13 -145 -71z"/>
<path d="M5584 6851 c-80 -19 -143 -88 -151 -165 -7 -62 3 -94 31 -102 39 -10
66 11 66 52 0 42 23 89 49 104 48 25 141 -5 141 -45 0 -8 11 -26 24 -42 21
-24 27 -26 48 -16 32 14 39 41 22 88 -30 88 -138 147 -230 126z"/>
<path d="M7195 6836 c-45 -20 -84 -61 -106 -112 -19 -42 -19 -47 -5 -70 29
-42 62 -31 94 32 35 69 112 86 163 35 22 -23 29 -39 29 -69 0 -52 29 -80 68
-66 24 8 27 15 30 61 7 112 -84 204 -200 203 -24 -1 -56 -7 -73 -14z"/>
<path d="M6097 6363 c-14 -13 -6 -104 13 -157 23 -61 85 -136 142 -172 21 -14
66 -32 100 -40 197 -51 397 87 415 286 6 66 -5 90 -42 90 -30 0 -41 -16 -50
-70 -21 -130 -118 -215 -245 -215 -127 0 -224 85 -245 215 -4 25 -12 51 -17
58 -11 13 -60 17 -71 5z"/>
<path d="M1135 7140 c-92 -19 -356 -32 -539 -28 l-196 4 0 -37 c0 -37 1 -38
55 -54 98 -28 161 -107 184 -230 8 -41 11 -551 11 -1672 l0 -1613 -170 0 -170
0 0 -40 0 -40 169 0 170 0 4 -807 c5 -890 5 -893 68 -1021 61 -125 182 -210
338 -238 300 -53 532 56 660 311 l44 87 -24 19 c-35 27 -41 24 -69 -27 -65
-124 -138 -182 -237 -191 -72 -6 -137 24 -168 77 -20 34 -20 52 -23 913 l-2
877 240 0 240 0 0 40 0 40 -240 0 -240 0 0 265 c0 146 2 265 5 265 3 0 23 -11
44 -25 98 -65 229 -90 429 -82 149 6 263 32 365 83 372 188 534 552 514 1154
-13 389 -104 638 -298 813 -124 113 -256 161 -439 161 -134 -1 -211 -18 -319
-71 -91 -44 -212 -159 -262 -248 l-34 -60 -3 693 -2 692 -33 -1 c-17 -1 -50
-5 -72 -9z m570 -1187 c186 -63 275 -360 275 -919 0 -670 -131 -996 -410
-1021 -81 -8 -192 19 -268 64 l-62 37 2 770 3 771 32 68 c87 183 273 283 428
230z"/>
<path d="M2845 3563 c-82 -12 -199 -48 -280 -87 -235 -113 -394 -301 -474
-561 -91 -291 -88 -688 6 -965 117 -347 385 -554 762 -590 134 -13 273 0 376
35 216 72 403 256 507 498 22 49 38 90 36 92 -2 1 -18 7 -36 13 -31 11 -33 10
-71 -41 -126 -169 -272 -253 -462 -264 -119 -7 -205 15 -299 79 -106 71 -199
219 -240 387 -23 92 -38 286 -32 419 l4 92 569 0 569 0 0 78 c0 42 -7 120 -15
172 -55 364 -238 576 -552 636 -69 13 -292 17 -368 7z m228 -97 c116 -48 189
-257 204 -583 l6 -143 -322 0 -323 0 7 83 c27 332 123 570 257 635 50 24 124
28 171 8z"/>
<path d="M9305 3561 c-158 -26 -332 -102 -445 -194 -190 -155 -314 -400 -350
-694 -16 -124 -13 -381 5 -498 52 -341 222 -598 482 -729 137 -69 370 -106
542 -86 292 33 525 210 661 503 56 122 56 122 16 134 l-35 11 -52 -69 c-116
-152 -262 -234 -439 -246 -277 -18 -462 141 -552 477 -16 60 -21 119 -25 288
l-5 212 576 0 577 0 -5 48 c-3 26 -8 83 -11 127 -15 227 -109 446 -242 564
-62 56 -167 111 -258 136 -68 19 -357 29 -440 16z m269 -115 c98 -74 158 -274
172 -568 l7 -138 -323 0 -322 0 6 78 c26 291 103 519 207 606 53 45 87 57 155
53 49 -2 69 -8 98 -31z"/>
</g>
</svg>
