<?xml version="1.0" encoding="utf-8"?>
<!-- Generator: Adobe Illustrator 23.0.6, SVG Export Plug-In . SVG Version: 6.00 Build 0)  -->
<svg version="1.1" id="Calque_1" xmlns="http://www.w3.org/2000/svg" xmlns:xlink="http://www.w3.org/1999/xlink" x="0px" y="0px"
	 viewBox="0 0 23.4 23.4" style="enable-background:new 0 0 23.4 23.4;" xml:space="preserve">
<style type="text/css">
	.st0{fill:#354463;}
</style>
<path id="Tracé_109" class="st0" d="M11.7,16.4c2.5,0,4.6-2.1,4.6-4.6c0-2.5-2.1-4.6-4.6-4.6c-2.5,0-4.6,2-4.6,4.6
	C7.1,14.3,9.1,16.4,11.7,16.4z M11.7,8.4c1.9,0,3.4,1.5,3.4,3.4s-1.5,3.4-3.4,3.4s-3.4-1.5-3.4-3.4c0,0,0,0,0,0
	C8.3,9.9,9.8,8.4,11.7,8.4z M16.8,8.8h6.6v10c0,2.5-2.1,4.6-4.6,4.6l0,0H4.7c-2.6,0-4.6-2-4.7-4.6v-10h6.6c-0.6,0.9-0.8,2-0.8,3
	c0,3.3,2.7,5.9,6,5.9c3.2,0,5.8-2.6,5.9-5.9C17.6,10.7,17.3,9.7,16.8,8.8L16.8,8.8z M18.8,0H6.8v4.9h-1V0h-1v4.9h-1V0.1
	c-0.3,0.1-0.7,0.1-1,0.3v4.5h-1v-4C0.7,1.7,0,3.1,0,4.6v3.2h7.3c2.2-2.4,5.9-2.6,8.4-0.4c0.1,0.1,0.3,0.3,0.4,0.4h7.3V4.6
	C23.4,2.1,21.3,0,18.8,0L18.8,0z M21.4,5.1c0,0.4-0.3,0.7-0.7,0.7c0,0,0,0,0,0h-2.4c-0.4,0-0.7-0.3-0.7-0.7V2.7
	c0-0.4,0.3-0.7,0.7-0.7h2.4c0.4,0,0.7,0.3,0.7,0.7c0,0,0,0,0,0L21.4,5.1z"/>
</svg>
