<svg xmlns="http://www.w3.org/2000/svg" width="23.358" height="23.358" viewBox="0 0 23.358 23.358">
  <path id="Tracé_109" data-name="Tracé 109" d="M11.664,16.365a4.577,4.577,0,1,0-4.58-4.58A4.585,4.585,0,0,0,11.664,16.365ZM11.679,8.4a3.386,3.386,0,1,1-3.386,3.385A3.386,3.386,0,0,1,11.679,8.4Zm5.083.359h6.6v10a4.6,4.6,0,0,1-4.6,4.6H4.657A4.648,4.648,0,0,1,0,18.763v-10H6.567a5.886,5.886,0,0,0-.849,3.026,5.946,5.946,0,0,0,11.891,0A5.885,5.885,0,0,0,16.763,8.759Zm2-8.759H6.813V4.866H5.84V0H4.866V4.866H3.893V.075A4.662,4.662,0,0,0,2.92.338V4.866H1.947V.874A4.572,4.572,0,0,0,0,4.6v3.19H7.273a5.925,5.925,0,0,1,8.781,0h7.3V4.6A4.6,4.6,0,0,0,18.763,0Zm2.649,5.124a.72.72,0,0,1-.725.715H18.243a.72.72,0,0,1-.724-.715V2.662a.72.72,0,0,1,.724-.715h2.444a.72.72,0,0,1,.725.715Z" fill="#c9d3b7"/>
</svg>
